<svg width="360" height="380" viewBox="0 0 360 380" fill="none" xmlns="http://www.w3.org/2000/svg">
<rect width="360" height="380" fill="#7BCBE2"/>
<path d="M256.431 193.515C249.524 171.129 218.662 154.25 181.625 154.25C150.21 154.25 123.249 166.393 111.567 183.728C109.534 183.577 107.467 183.5 105.375 183.5C75.8968 183.5 52 198.778 52 217.625C52 236.472 75.8968 251.75 105.375 251.75L250.25 251.75C275.517 251.75 296 238.654 296 222.5C296 207.686 278.775 195.444 256.431 193.515Z" fill="#BAB9B9"/>
<path d="M285.161 203.123C278.905 182.172 250.952 166.375 217.406 166.375C188.953 166.375 164.533 177.74 153.952 193.963C152.111 193.822 150.239 193.75 148.344 193.75C121.644 193.75 100 208.049 100 225.687C100 243.326 121.644 257.625 148.344 257.625H279.562C302.448 257.625 321 245.369 321 230.25C321 216.386 305.399 204.928 285.161 203.123Z" fill="white"/>
</svg>
