<svg width="368" height="383" viewBox="0 0 368 383" fill="none" xmlns="http://www.w3.org/2000/svg">
<rect width="360" height="380" fill="#0B0624"/>
<path d="M203.657 271.247C203.767 270.918 204.233 270.918 204.343 271.247L204.988 273.183C205.276 274.047 205.953 274.724 206.816 275.012L208.753 275.657C209.082 275.767 209.082 276.233 208.753 276.343L206.816 276.988C205.953 277.276 205.276 277.953 204.988 278.816L204.343 280.753C204.233 281.082 203.767 281.082 203.657 280.753L203.012 278.816C202.724 277.953 202.047 277.276 201.184 276.988L199.247 276.343C198.918 276.233 198.918 275.767 199.247 275.657L201.184 275.012C202.047 274.724 202.724 274.047 203.012 273.184L203.657 271.247Z" fill="#C4FF00"/>
<path d="M199.794 266.148C199.86 265.951 200.14 265.951 200.206 266.148L200.593 267.31C200.766 267.828 201.172 268.234 201.69 268.407L202.852 268.794C203.049 268.86 203.049 269.14 202.852 269.206L201.69 269.593C201.172 269.766 200.766 270.172 200.593 270.69L200.206 271.852C200.14 272.049 199.86 272.049 199.794 271.852L199.407 270.69C199.234 270.172 198.828 269.766 198.31 269.593L197.148 269.206C196.951 269.14 196.951 268.86 197.148 268.794L198.31 268.407C198.828 268.234 199.234 267.828 199.407 267.31L199.794 266.148Z" fill="#C4FF00"/>
<path d="M206.863 265.099C206.907 264.967 207.093 264.967 207.137 265.099L207.395 265.873C207.51 266.219 207.781 266.49 208.127 266.605L208.901 266.863C209.033 266.907 209.033 267.093 208.901 267.137L208.127 267.395C207.781 267.51 207.51 267.781 207.395 268.127L207.137 268.901C207.093 269.033 206.907 269.033 206.863 268.901L206.605 268.127C206.49 267.781 206.219 267.51 205.873 267.395L205.099 267.137C204.967 267.093 204.967 266.907 205.099 266.863L205.873 266.605C206.219 266.49 206.49 266.219 206.605 265.873L206.863 265.099Z" fill="#C4FF00"/>
<path d="M359.657 152.247C359.767 151.918 360.233 151.918 360.343 152.247L360.988 154.183C361.276 155.047 361.953 155.724 362.816 156.012L364.753 156.657C365.082 156.767 365.082 157.233 364.753 157.343L362.816 157.988C361.953 158.276 361.276 158.953 360.988 159.816L360.343 161.753C360.233 162.082 359.767 162.082 359.657 161.753L359.012 159.816C358.724 158.953 358.047 158.276 357.184 157.988L355.247 157.343C354.918 157.233 354.918 156.767 355.247 156.657L357.184 156.012C358.047 155.724 358.724 155.047 359.012 154.184L359.657 152.247Z" fill="#C4FF00"/>
<path d="M355.794 147.148C355.86 146.951 356.14 146.951 356.206 147.148L356.593 148.31C356.766 148.828 357.172 149.234 357.69 149.407L358.852 149.794C359.049 149.86 359.049 150.14 358.852 150.206L357.69 150.593C357.172 150.766 356.766 151.172 356.593 151.69L356.206 152.852C356.14 153.049 355.86 153.049 355.794 152.852L355.407 151.69C355.234 151.172 354.828 150.766 354.31 150.593L353.148 150.206C352.951 150.14 352.951 149.86 353.148 149.794L354.31 149.407C354.828 149.234 355.234 148.828 355.407 148.31L355.794 147.148Z" fill="#C4FF00"/>
<path d="M362.863 146.099C362.907 145.967 363.093 145.967 363.137 146.099L363.395 146.873C363.51 147.219 363.781 147.49 364.127 147.605L364.901 147.863C365.033 147.907 365.033 148.093 364.901 148.137L364.127 148.395C363.781 148.51 363.51 148.781 363.395 149.127L363.137 149.901C363.093 150.033 362.907 150.033 362.863 149.901L362.605 149.127C362.49 148.781 362.219 148.51 361.873 148.395L361.099 148.137C360.967 148.093 360.967 147.907 361.099 147.863L361.873 147.605C362.219 147.49 362.49 147.219 362.605 146.873L362.863 146.099Z" fill="#C4FF00"/>
<path d="M187.657 373.247C187.767 372.918 188.233 372.918 188.343 373.247L188.988 375.183C189.276 376.047 189.953 376.724 190.816 377.012L192.753 377.657C193.082 377.767 193.082 378.233 192.753 378.343L190.816 378.988C189.953 379.276 189.276 379.953 188.988 380.816L188.343 382.753C188.233 383.082 187.767 383.082 187.657 382.753L187.012 380.816C186.724 379.953 186.047 379.276 185.184 378.988L183.247 378.343C182.918 378.233 182.918 377.767 183.247 377.657L185.184 377.012C186.047 376.724 186.724 376.047 187.012 375.184L187.657 373.247Z" fill="#C4FF00"/>
<path d="M183.794 368.148C183.86 367.951 184.14 367.951 184.206 368.148L184.593 369.31C184.766 369.828 185.172 370.234 185.69 370.407L186.852 370.794C187.049 370.86 187.049 371.14 186.852 371.206L185.69 371.593C185.172 371.766 184.766 372.172 184.593 372.69L184.206 373.852C184.14 374.049 183.86 374.049 183.794 373.852L183.407 372.69C183.234 372.172 182.828 371.766 182.31 371.593L181.148 371.206C180.951 371.14 180.951 370.86 181.148 370.794L182.31 370.407C182.828 370.234 183.234 369.828 183.407 369.31L183.794 368.148Z" fill="#C4FF00"/>
<path d="M190.863 367.099C190.907 366.967 191.093 366.967 191.137 367.099L191.395 367.873C191.51 368.219 191.781 368.49 192.127 368.605L192.901 368.863C193.033 368.907 193.033 369.093 192.901 369.137L192.127 369.395C191.781 369.51 191.51 369.781 191.395 370.127L191.137 370.901C191.093 371.033 190.907 371.033 190.863 370.901L190.605 370.127C190.49 369.781 190.219 369.51 189.873 369.395L189.099 369.137C188.967 369.093 188.967 368.907 189.099 368.863L189.873 368.605C190.219 368.49 190.49 368.219 190.605 367.873L190.863 367.099Z" fill="#C4FF00"/>
<path d="M259.657 335.247C259.767 334.918 260.233 334.918 260.343 335.247L260.988 337.183C261.276 338.047 261.953 338.724 262.816 339.012L264.753 339.657C265.082 339.767 265.082 340.233 264.753 340.343L262.816 340.988C261.953 341.276 261.276 341.953 260.988 342.816L260.343 344.753C260.233 345.082 259.767 345.082 259.657 344.753L259.012 342.816C258.724 341.953 258.047 341.276 257.184 340.988L255.247 340.343C254.918 340.233 254.918 339.767 255.247 339.657L257.184 339.012C258.047 338.724 258.724 338.047 259.012 337.184L259.657 335.247Z" fill="#C4FF00"/>
<path d="M255.794 330.148C255.86 329.951 256.14 329.951 256.206 330.148L256.593 331.31C256.766 331.828 257.172 332.234 257.69 332.407L258.852 332.794C259.049 332.86 259.049 333.14 258.852 333.206L257.69 333.593C257.172 333.766 256.766 334.172 256.593 334.69L256.206 335.852C256.14 336.049 255.86 336.049 255.794 335.852L255.407 334.69C255.234 334.172 254.828 333.766 254.31 333.593L253.148 333.206C252.951 333.14 252.951 332.86 253.148 332.794L254.31 332.407C254.828 332.234 255.234 331.828 255.407 331.31L255.794 330.148Z" fill="#C4FF00"/>
<path d="M262.863 329.099C262.907 328.967 263.093 328.967 263.137 329.099L263.395 329.873C263.51 330.219 263.781 330.49 264.127 330.605L264.901 330.863C265.033 330.907 265.033 331.093 264.901 331.137L264.127 331.395C263.781 331.51 263.51 331.781 263.395 332.127L263.137 332.901C263.093 333.033 262.907 333.033 262.863 332.901L262.605 332.127C262.49 331.781 262.219 331.51 261.873 331.395L261.099 331.137C260.967 331.093 260.967 330.907 261.099 330.863L261.873 330.605C262.219 330.49 262.49 330.219 262.605 329.873L262.863 329.099Z" fill="#C4FF00"/>
<path d="M67.6572 74.2471C67.767 73.9176 68.233 73.9176 68.3428 74.2471L68.9883 76.1835C69.276 77.0467 69.9533 77.724 70.8165 78.0117L72.7529 78.6572C73.0824 78.767 73.0824 79.233 72.7529 79.3428L70.8165 79.9883C69.9533 80.276 69.276 80.9533 68.9883 81.8165L68.3428 83.7529C68.233 84.0823 67.767 84.0823 67.6572 83.7529L67.0117 81.8165C66.724 80.9533 66.0467 80.276 65.1835 79.9883L63.2471 79.3428C62.9176 79.233 62.9176 78.767 63.2471 78.6572L65.1835 78.0117C66.0467 77.724 66.724 77.0467 67.0117 76.1835L67.6572 74.2471Z" fill="#C4FF00"/>
<path d="M63.7943 69.1482C63.8602 68.9506 64.1398 68.9506 64.2057 69.1482L64.593 70.3101C64.7656 70.828 65.172 71.2344 65.6899 71.407L66.8518 71.7943C67.0494 71.8602 67.0494 72.1398 66.8518 72.2057L65.6899 72.593C65.172 72.7656 64.7656 73.172 64.593 73.6899L64.2057 74.8518C64.1398 75.0494 63.8602 75.0494 63.7943 74.8518L63.407 73.6899C63.2344 73.172 62.828 72.7656 62.3101 72.593L61.1482 72.2057C60.9506 72.1398 60.9506 71.8602 61.1482 71.7943L62.3101 71.407C62.828 71.2344 63.2344 70.828 63.407 70.3101L63.7943 69.1482Z" fill="#C4FF00"/>
<path d="M70.8629 68.0988C70.9068 67.9671 71.0932 67.9671 71.1371 68.0988L71.3953 68.8734C71.5104 69.2187 71.7813 69.4896 72.1266 69.6047L72.9012 69.8629C73.0329 69.9068 73.0329 70.0932 72.9012 70.1371L72.1266 70.3953C71.7813 70.5104 71.5104 70.7813 71.3953 71.1266L71.1371 71.9012C71.0932 72.0329 70.9068 72.0329 70.8629 71.9012L70.6047 71.1266C70.4896 70.7813 70.2187 70.5104 69.8734 70.3953L69.0988 70.1371C68.9671 70.0932 68.9671 69.9068 69.0988 69.8629L69.8734 69.6047C70.2187 69.4896 70.4896 69.2187 70.6047 68.8734L70.8629 68.0988Z" fill="#C4FF00"/>
<path d="M280.657 78.2471C280.767 77.9176 281.233 77.9176 281.343 78.2471L281.988 80.1835C282.276 81.0467 282.953 81.724 283.816 82.0117L285.753 82.6572C286.082 82.767 286.082 83.233 285.753 83.3428L283.816 83.9883C282.953 84.276 282.276 84.9533 281.988 85.8165L281.343 87.7529C281.233 88.0823 280.767 88.0823 280.657 87.7529L280.012 85.8165C279.724 84.9533 279.047 84.276 278.184 83.9883L276.247 83.3428C275.918 83.233 275.918 82.767 276.247 82.6572L278.184 82.0117C279.047 81.724 279.724 81.0467 280.012 80.1835L280.657 78.2471Z" fill="#C4FF00"/>
<path d="M276.794 73.1482C276.86 72.9506 277.14 72.9506 277.206 73.1482L277.593 74.3101C277.766 74.828 278.172 75.2344 278.69 75.407L279.852 75.7943C280.049 75.8602 280.049 76.1398 279.852 76.2057L278.69 76.593C278.172 76.7656 277.766 77.172 277.593 77.6899L277.206 78.8518C277.14 79.0494 276.86 79.0494 276.794 78.8518L276.407 77.6899C276.234 77.172 275.828 76.7656 275.31 76.593L274.148 76.2057C273.951 76.1398 273.951 75.8602 274.148 75.7943L275.31 75.407C275.828 75.2344 276.234 74.828 276.407 74.3101L276.794 73.1482Z" fill="#C4FF00"/>
<path d="M283.863 72.0988C283.907 71.9671 284.093 71.9671 284.137 72.0988L284.395 72.8734C284.51 73.2187 284.781 73.4896 285.127 73.6047L285.901 73.8629C286.033 73.9068 286.033 74.0932 285.901 74.1371L285.127 74.3953C284.781 74.5104 284.51 74.7813 284.395 75.1266L284.137 75.9012C284.093 76.0329 283.907 76.0329 283.863 75.9012L283.605 75.1266C283.49 74.7813 283.219 74.5104 282.873 74.3953L282.099 74.1371C281.967 74.0932 281.967 73.9068 282.099 73.8629L282.873 73.6047C283.219 73.4896 283.49 73.2187 283.605 72.8734L283.863 72.0988Z" fill="#C4FF00"/>
<path d="M184.657 110.247C184.767 109.918 185.233 109.918 185.343 110.247L185.988 112.183C186.276 113.047 186.953 113.724 187.816 114.012L189.753 114.657C190.082 114.767 190.082 115.233 189.753 115.343L187.816 115.988C186.953 116.276 186.276 116.953 185.988 117.816L185.343 119.753C185.233 120.082 184.767 120.082 184.657 119.753L184.012 117.816C183.724 116.953 183.047 116.276 182.184 115.988L180.247 115.343C179.918 115.233 179.918 114.767 180.247 114.657L182.184 114.012C183.047 113.724 183.724 113.047 184.012 112.184L184.657 110.247Z" fill="#C4FF00"/>
<path d="M180.794 105.148C180.86 104.951 181.14 104.951 181.206 105.148L181.593 106.31C181.766 106.828 182.172 107.234 182.69 107.407L183.852 107.794C184.049 107.86 184.049 108.14 183.852 108.206L182.69 108.593C182.172 108.766 181.766 109.172 181.593 109.69L181.206 110.852C181.14 111.049 180.86 111.049 180.794 110.852L180.407 109.69C180.234 109.172 179.828 108.766 179.31 108.593L178.148 108.206C177.951 108.14 177.951 107.86 178.148 107.794L179.31 107.407C179.828 107.234 180.234 106.828 180.407 106.31L180.794 105.148Z" fill="#C4FF00"/>
<path d="M187.863 104.099C187.907 103.967 188.093 103.967 188.137 104.099L188.395 104.873C188.51 105.219 188.781 105.49 189.127 105.605L189.901 105.863C190.033 105.907 190.033 106.093 189.901 106.137L189.127 106.395C188.781 106.51 188.51 106.781 188.395 107.127L188.137 107.901C188.093 108.033 187.907 108.033 187.863 107.901L187.605 107.127C187.49 106.781 187.219 106.51 186.873 106.395L186.099 106.137C185.967 106.093 185.967 105.907 186.099 105.863L186.873 105.605C187.219 105.49 187.49 105.219 187.605 104.873L187.863 104.099Z" fill="#C4FF00"/>
<path d="M325.657 271.247C325.767 270.918 326.233 270.918 326.343 271.247L326.988 273.183C327.276 274.047 327.953 274.724 328.816 275.012L330.753 275.657C331.082 275.767 331.082 276.233 330.753 276.343L328.816 276.988C327.953 277.276 327.276 277.953 326.988 278.816L326.343 280.753C326.233 281.082 325.767 281.082 325.657 280.753L325.012 278.816C324.724 277.953 324.047 277.276 323.184 276.988L321.247 276.343C320.918 276.233 320.918 275.767 321.247 275.657L323.184 275.012C324.047 274.724 324.724 274.047 325.012 273.184L325.657 271.247Z" fill="#C4FF00"/>
<path d="M321.794 266.148C321.86 265.951 322.14 265.951 322.206 266.148L322.593 267.31C322.766 267.828 323.172 268.234 323.69 268.407L324.852 268.794C325.049 268.86 325.049 269.14 324.852 269.206L323.69 269.593C323.172 269.766 322.766 270.172 322.593 270.69L322.206 271.852C322.14 272.049 321.86 272.049 321.794 271.852L321.407 270.69C321.234 270.172 320.828 269.766 320.31 269.593L319.148 269.206C318.951 269.14 318.951 268.86 319.148 268.794L320.31 268.407C320.828 268.234 321.234 267.828 321.407 267.31L321.794 266.148Z" fill="#C4FF00"/>
<path d="M328.863 265.099C328.907 264.967 329.093 264.967 329.137 265.099L329.395 265.873C329.51 266.219 329.781 266.49 330.127 266.605L330.901 266.863C331.033 266.907 331.033 267.093 330.901 267.137L330.127 267.395C329.781 267.51 329.51 267.781 329.395 268.127L329.137 268.901C329.093 269.033 328.907 269.033 328.863 268.901L328.605 268.127C328.49 267.781 328.219 267.51 327.873 267.395L327.099 267.137C326.967 267.093 326.967 266.907 327.099 266.863L327.873 266.605C328.219 266.49 328.49 266.219 328.605 265.873L328.863 265.099Z" fill="#C4FF00"/>
<path d="M82.6572 327.247C82.767 326.918 83.233 326.918 83.3428 327.247L83.9883 329.183C84.276 330.047 84.9533 330.724 85.8165 331.012L87.7529 331.657C88.0824 331.767 88.0824 332.233 87.7529 332.343L85.8165 332.988C84.9533 333.276 84.276 333.953 83.9883 334.816L83.3428 336.753C83.233 337.082 82.767 337.082 82.6572 336.753L82.0117 334.816C81.724 333.953 81.0467 333.276 80.1835 332.988L78.2471 332.343C77.9176 332.233 77.9176 331.767 78.2471 331.657L80.1835 331.012C81.0467 330.724 81.724 330.047 82.0117 329.184L82.6572 327.247Z" fill="#C4FF00"/>
<path d="M78.7943 322.148C78.8602 321.951 79.1398 321.951 79.2057 322.148L79.593 323.31C79.7656 323.828 80.172 324.234 80.6899 324.407L81.8518 324.794C82.0494 324.86 82.0494 325.14 81.8518 325.206L80.6899 325.593C80.172 325.766 79.7656 326.172 79.593 326.69L79.2057 327.852C79.1398 328.049 78.8602 328.049 78.7943 327.852L78.407 326.69C78.2344 326.172 77.828 325.766 77.3101 325.593L76.1482 325.206C75.9506 325.14 75.9506 324.86 76.1482 324.794L77.3101 324.407C77.828 324.234 78.2344 323.828 78.407 323.31L78.7943 322.148Z" fill="#C4FF00"/>
<path d="M85.8629 321.099C85.9068 320.967 86.0932 320.967 86.1371 321.099L86.3953 321.873C86.5104 322.219 86.7813 322.49 87.1266 322.605L87.9012 322.863C88.0329 322.907 88.0329 323.093 87.9012 323.137L87.1266 323.395C86.7813 323.51 86.5104 323.781 86.3953 324.127L86.1371 324.901C86.0932 325.033 85.9068 325.033 85.8629 324.901L85.6047 324.127C85.4896 323.781 85.2187 323.51 84.8734 323.395L84.0988 323.137C83.9671 323.093 83.9671 322.907 84.0988 322.863L84.8734 322.605C85.2187 322.49 85.4896 322.219 85.6047 321.873L85.8629 321.099Z" fill="#C4FF00"/>
<path d="M69.6572 137.247C69.767 136.918 70.233 136.918 70.3428 137.247L70.9883 139.183C71.276 140.047 71.9533 140.724 72.8165 141.012L74.7529 141.657C75.0824 141.767 75.0824 142.233 74.7529 142.343L72.8165 142.988C71.9533 143.276 71.276 143.953 70.9883 144.816L70.3428 146.753C70.233 147.082 69.767 147.082 69.6572 146.753L69.0117 144.816C68.724 143.953 68.0467 143.276 67.1835 142.988L65.2471 142.343C64.9176 142.233 64.9176 141.767 65.2471 141.657L67.1835 141.012C68.0467 140.724 68.724 140.047 69.0117 139.184L69.6572 137.247Z" fill="#C4FF00"/>
<path d="M65.7943 132.148C65.8602 131.951 66.1398 131.951 66.2057 132.148L66.593 133.31C66.7656 133.828 67.172 134.234 67.6899 134.407L68.8518 134.794C69.0494 134.86 69.0494 135.14 68.8518 135.206L67.6899 135.593C67.172 135.766 66.7656 136.172 66.593 136.69L66.2057 137.852C66.1398 138.049 65.8602 138.049 65.7943 137.852L65.407 136.69C65.2344 136.172 64.828 135.766 64.3101 135.593L63.1482 135.206C62.9506 135.14 62.9506 134.86 63.1482 134.794L64.3101 134.407C64.828 134.234 65.2344 133.828 65.407 133.31L65.7943 132.148Z" fill="#C4FF00"/>
<path d="M72.8629 131.099C72.9068 130.967 73.0932 130.967 73.1371 131.099L73.3953 131.873C73.5104 132.219 73.7813 132.49 74.1266 132.605L74.9012 132.863C75.0329 132.907 75.0329 133.093 74.9012 133.137L74.1266 133.395C73.7813 133.51 73.5104 133.781 73.3953 134.127L73.1371 134.901C73.0932 135.033 72.9068 135.033 72.8629 134.901L72.6047 134.127C72.4896 133.781 72.2187 133.51 71.8734 133.395L71.0988 133.137C70.9671 133.093 70.9671 132.907 71.0988 132.863L71.8734 132.605C72.2187 132.49 72.4896 132.219 72.6047 131.873L72.8629 131.099Z" fill="#C4FF00"/>
<path d="M32.6572 160.247C32.767 159.918 33.233 159.918 33.3428 160.247L33.9883 162.183C34.276 163.047 34.9533 163.724 35.8165 164.012L37.7529 164.657C38.0824 164.767 38.0824 165.233 37.7529 165.343L35.8165 165.988C34.9533 166.276 34.276 166.953 33.9883 167.816L33.3428 169.753C33.233 170.082 32.767 170.082 32.6572 169.753L32.0117 167.816C31.724 166.953 31.0467 166.276 30.1835 165.988L28.2471 165.343C27.9176 165.233 27.9176 164.767 28.2471 164.657L30.1835 164.012C31.0467 163.724 31.724 163.047 32.0117 162.184L32.6572 160.247Z" fill="#C4FF00"/>
<path d="M28.7943 155.148C28.8602 154.951 29.1398 154.951 29.2057 155.148L29.593 156.31C29.7656 156.828 30.172 157.234 30.6899 157.407L31.8518 157.794C32.0494 157.86 32.0494 158.14 31.8518 158.206L30.6899 158.593C30.172 158.766 29.7656 159.172 29.593 159.69L29.2057 160.852C29.1398 161.049 28.8602 161.049 28.7943 160.852L28.407 159.69C28.2344 159.172 27.828 158.766 27.3101 158.593L26.1482 158.206C25.9506 158.14 25.9506 157.86 26.1482 157.794L27.3101 157.407C27.828 157.234 28.2344 156.828 28.407 156.31L28.7943 155.148Z" fill="#C4FF00"/>
<path d="M35.8629 154.099C35.9068 153.967 36.0932 153.967 36.1371 154.099L36.3953 154.873C36.5104 155.219 36.7813 155.49 37.1266 155.605L37.9012 155.863C38.0329 155.907 38.0329 156.093 37.9012 156.137L37.1266 156.395C36.7813 156.51 36.5104 156.781 36.3953 157.127L36.1371 157.901C36.0932 158.033 35.9068 158.033 35.8629 157.901L35.6047 157.127C35.4896 156.781 35.2187 156.51 34.8734 156.395L34.0988 156.137C33.9671 156.093 33.9671 155.907 34.0988 155.863L34.8734 155.605C35.2187 155.49 35.4896 155.219 35.6047 154.873L35.8629 154.099Z" fill="#C4FF00"/>
<path d="M270.657 27.2471C270.767 26.9176 271.233 26.9176 271.343 27.2471L271.988 29.1835C272.276 30.0467 272.953 30.724 273.816 31.0117L275.753 31.6572C276.082 31.767 276.082 32.233 275.753 32.3428L273.816 32.9883C272.953 33.276 272.276 33.9533 271.988 34.8165L271.343 36.7529C271.233 37.0823 270.767 37.0823 270.657 36.7529L270.012 34.8165C269.724 33.9533 269.047 33.276 268.184 32.9883L266.247 32.3428C265.918 32.233 265.918 31.767 266.247 31.6572L268.184 31.0117C269.047 30.724 269.724 30.0467 270.012 29.1835L270.657 27.2471Z" fill="#C4FF00"/>
<path d="M266.794 22.1482C266.86 21.9506 267.14 21.9506 267.206 22.1482L267.593 23.3101C267.766 23.828 268.172 24.2344 268.69 24.407L269.852 24.7943C270.049 24.8602 270.049 25.1398 269.852 25.2057L268.69 25.593C268.172 25.7656 267.766 26.172 267.593 26.6899L267.206 27.8518C267.14 28.0494 266.86 28.0494 266.794 27.8518L266.407 26.6899C266.234 26.172 265.828 25.7656 265.31 25.593L264.148 25.2057C263.951 25.1398 263.951 24.8602 264.148 24.7943L265.31 24.407C265.828 24.2344 266.234 23.828 266.407 23.3101L266.794 22.1482Z" fill="#C4FF00"/>
<path d="M273.863 21.0988C273.907 20.9671 274.093 20.9671 274.137 21.0988L274.395 21.8734C274.51 22.2187 274.781 22.4896 275.127 22.6047L275.901 22.8629C276.033 22.9068 276.033 23.0932 275.901 23.1371L275.127 23.3953C274.781 23.5104 274.51 23.7813 274.395 24.1266L274.137 24.9012C274.093 25.0329 273.907 25.0329 273.863 24.9012L273.605 24.1266C273.49 23.7813 273.219 23.5104 272.873 23.3953L272.099 23.1371C271.967 23.0932 271.967 22.9068 272.099 22.8629L272.873 22.6047C273.219 22.4896 273.49 22.2187 273.605 21.8734L273.863 21.0988Z" fill="#C4FF00"/>
<path d="M132.657 164.247C132.767 163.918 133.233 163.918 133.343 164.247L133.988 166.183C134.276 167.047 134.953 167.724 135.816 168.012L137.753 168.657C138.082 168.767 138.082 169.233 137.753 169.343L135.816 169.988C134.953 170.276 134.276 170.953 133.988 171.816L133.343 173.753C133.233 174.082 132.767 174.082 132.657 173.753L132.012 171.816C131.724 170.953 131.047 170.276 130.184 169.988L128.247 169.343C127.918 169.233 127.918 168.767 128.247 168.657L130.184 168.012C131.047 167.724 131.724 167.047 132.012 166.184L132.657 164.247Z" fill="#C4FF00"/>
<path d="M128.794 159.148C128.86 158.951 129.14 158.951 129.206 159.148L129.593 160.31C129.766 160.828 130.172 161.234 130.69 161.407L131.852 161.794C132.049 161.86 132.049 162.14 131.852 162.206L130.69 162.593C130.172 162.766 129.766 163.172 129.593 163.69L129.206 164.852C129.14 165.049 128.86 165.049 128.794 164.852L128.407 163.69C128.234 163.172 127.828 162.766 127.31 162.593L126.148 162.206C125.951 162.14 125.951 161.86 126.148 161.794L127.31 161.407C127.828 161.234 128.234 160.828 128.407 160.31L128.794 159.148Z" fill="#C4FF00"/>
<path d="M135.863 158.099C135.907 157.967 136.093 157.967 136.137 158.099L136.395 158.873C136.51 159.219 136.781 159.49 137.127 159.605L137.901 159.863C138.033 159.907 138.033 160.093 137.901 160.137L137.127 160.395C136.781 160.51 136.51 160.781 136.395 161.127L136.137 161.901C136.093 162.033 135.907 162.033 135.863 161.901L135.605 161.127C135.49 160.781 135.219 160.51 134.873 160.395L134.099 160.137C133.967 160.093 133.967 159.907 134.099 159.863L134.873 159.605C135.219 159.49 135.49 159.219 135.605 158.873L135.863 158.099Z" fill="#C4FF00"/>
<path d="M64.6572 271.247C64.767 270.918 65.233 270.918 65.3428 271.247L65.9883 273.183C66.276 274.047 66.9533 274.724 67.8165 275.012L69.7529 275.657C70.0824 275.767 70.0824 276.233 69.7529 276.343L67.8165 276.988C66.9533 277.276 66.276 277.953 65.9883 278.816L65.3428 280.753C65.233 281.082 64.767 281.082 64.6572 280.753L64.0117 278.816C63.724 277.953 63.0467 277.276 62.1835 276.988L60.2471 276.343C59.9176 276.233 59.9176 275.767 60.2471 275.657L62.1835 275.012C63.0467 274.724 63.724 274.047 64.0117 273.184L64.6572 271.247Z" fill="#C4FF00"/>
<path d="M60.7943 266.148C60.8602 265.951 61.1398 265.951 61.2057 266.148L61.593 267.31C61.7656 267.828 62.172 268.234 62.6899 268.407L63.8518 268.794C64.0494 268.86 64.0494 269.14 63.8518 269.206L62.6899 269.593C62.172 269.766 61.7656 270.172 61.593 270.69L61.2057 271.852C61.1398 272.049 60.8602 272.049 60.7943 271.852L60.407 270.69C60.2344 270.172 59.828 269.766 59.3101 269.593L58.1482 269.206C57.9506 269.14 57.9506 268.86 58.1482 268.794L59.3101 268.407C59.828 268.234 60.2344 267.828 60.407 267.31L60.7943 266.148Z" fill="#C4FF00"/>
<path d="M67.8629 265.099C67.9068 264.967 68.0932 264.967 68.1371 265.099L68.3953 265.873C68.5104 266.219 68.7813 266.49 69.1266 266.605L69.9012 266.863C70.0329 266.907 70.0329 267.093 69.9012 267.137L69.1266 267.395C68.7813 267.51 68.5104 267.781 68.3953 268.127L68.1371 268.901C68.0932 269.033 67.9068 269.033 67.8629 268.901L67.6047 268.127C67.4896 267.781 67.2187 267.51 66.8734 267.395L66.0988 267.137C65.9671 267.093 65.9671 266.907 66.0988 266.863L66.8734 266.605C67.2187 266.49 67.4896 266.219 67.6047 265.873L67.8629 265.099Z" fill="#C4FF00"/>
<path d="M187.657 40.2471C187.767 39.9176 188.233 39.9176 188.343 40.2471L188.988 42.1835C189.276 43.0467 189.953 43.724 190.816 44.0117L192.753 44.6572C193.082 44.767 193.082 45.233 192.753 45.3428L190.816 45.9883C189.953 46.276 189.276 46.9533 188.988 47.8165L188.343 49.7529C188.233 50.0823 187.767 50.0823 187.657 49.7529L187.012 47.8165C186.724 46.9533 186.047 46.276 185.184 45.9883L183.247 45.3428C182.918 45.233 182.918 44.767 183.247 44.6572L185.184 44.0117C186.047 43.724 186.724 43.0467 187.012 42.1835L187.657 40.2471Z" fill="#C4FF00"/>
<path d="M183.794 35.1482C183.86 34.9506 184.14 34.9506 184.206 35.1482L184.593 36.3101C184.766 36.828 185.172 37.2344 185.69 37.407L186.852 37.7943C187.049 37.8602 187.049 38.1398 186.852 38.2057L185.69 38.593C185.172 38.7656 184.766 39.172 184.593 39.6899L184.206 40.8518C184.14 41.0494 183.86 41.0494 183.794 40.8518L183.407 39.6899C183.234 39.172 182.828 38.7656 182.31 38.593L181.148 38.2057C180.951 38.1398 180.951 37.8602 181.148 37.7943L182.31 37.407C182.828 37.2344 183.234 36.828 183.407 36.3101L183.794 35.1482Z" fill="#C4FF00"/>
<path d="M190.863 34.0988C190.907 33.9671 191.093 33.9671 191.137 34.0988L191.395 34.8734C191.51 35.2187 191.781 35.4896 192.127 35.6047L192.901 35.8629C193.033 35.9068 193.033 36.0932 192.901 36.1371L192.127 36.3953C191.781 36.5104 191.51 36.7813 191.395 37.1266L191.137 37.9012C191.093 38.0329 190.907 38.0329 190.863 37.9012L190.605 37.1266C190.49 36.7813 190.219 36.5104 189.873 36.3953L189.099 36.1371C188.967 36.0932 188.967 35.9068 189.099 35.8629L189.873 35.6047C190.219 35.4896 190.49 35.2187 190.605 34.8734L190.863 34.0988Z" fill="#C4FF00"/>
<path d="M319.657 110.247C319.767 109.918 320.233 109.918 320.343 110.247L320.988 112.183C321.276 113.047 321.953 113.724 322.816 114.012L324.753 114.657C325.082 114.767 325.082 115.233 324.753 115.343L322.816 115.988C321.953 116.276 321.276 116.953 320.988 117.816L320.343 119.753C320.233 120.082 319.767 120.082 319.657 119.753L319.012 117.816C318.724 116.953 318.047 116.276 317.184 115.988L315.247 115.343C314.918 115.233 314.918 114.767 315.247 114.657L317.184 114.012C318.047 113.724 318.724 113.047 319.012 112.184L319.657 110.247Z" fill="#C4FF00"/>
<path d="M315.794 105.148C315.86 104.951 316.14 104.951 316.206 105.148L316.593 106.31C316.766 106.828 317.172 107.234 317.69 107.407L318.852 107.794C319.049 107.86 319.049 108.14 318.852 108.206L317.69 108.593C317.172 108.766 316.766 109.172 316.593 109.69L316.206 110.852C316.14 111.049 315.86 111.049 315.794 110.852L315.407 109.69C315.234 109.172 314.828 108.766 314.31 108.593L313.148 108.206C312.951 108.14 312.951 107.86 313.148 107.794L314.31 107.407C314.828 107.234 315.234 106.828 315.407 106.31L315.794 105.148Z" fill="#C4FF00"/>
<path d="M322.863 104.099C322.907 103.967 323.093 103.967 323.137 104.099L323.395 104.873C323.51 105.219 323.781 105.49 324.127 105.605L324.901 105.863C325.033 105.907 325.033 106.093 324.901 106.137L324.127 106.395C323.781 106.51 323.51 106.781 323.395 107.127L323.137 107.901C323.093 108.033 322.907 108.033 322.863 107.901L322.605 107.127C322.49 106.781 322.219 106.51 321.873 106.395L321.099 106.137C320.967 106.093 320.967 105.907 321.099 105.863L321.873 105.605C322.219 105.49 322.49 105.219 322.605 104.873L322.863 104.099Z" fill="#C4FF00"/>
<path d="M267.657 279.247C267.767 278.918 268.233 278.918 268.343 279.247L268.988 281.183C269.276 282.047 269.953 282.724 270.816 283.012L272.753 283.657C273.082 283.767 273.082 284.233 272.753 284.343L270.816 284.988C269.953 285.276 269.276 285.953 268.988 286.816L268.343 288.753C268.233 289.082 267.767 289.082 267.657 288.753L267.012 286.816C266.724 285.953 266.047 285.276 265.184 284.988L263.247 284.343C262.918 284.233 262.918 283.767 263.247 283.657L265.184 283.012C266.047 282.724 266.724 282.047 267.012 281.184L267.657 279.247Z" fill="#C4FF00"/>
<path d="M263.794 274.148C263.86 273.951 264.14 273.951 264.206 274.148L264.593 275.31C264.766 275.828 265.172 276.234 265.69 276.407L266.852 276.794C267.049 276.86 267.049 277.14 266.852 277.206L265.69 277.593C265.172 277.766 264.766 278.172 264.593 278.69L264.206 279.852C264.14 280.049 263.86 280.049 263.794 279.852L263.407 278.69C263.234 278.172 262.828 277.766 262.31 277.593L261.148 277.206C260.951 277.14 260.951 276.86 261.148 276.794L262.31 276.407C262.828 276.234 263.234 275.828 263.407 275.31L263.794 274.148Z" fill="#C4FF00"/>
<path d="M270.863 273.099C270.907 272.967 271.093 272.967 271.137 273.099L271.395 273.873C271.51 274.219 271.781 274.49 272.127 274.605L272.901 274.863C273.033 274.907 273.033 275.093 272.901 275.137L272.127 275.395C271.781 275.51 271.51 275.781 271.395 276.127L271.137 276.901C271.093 277.033 270.907 277.033 270.863 276.901L270.605 276.127C270.49 275.781 270.219 275.51 269.873 275.395L269.099 275.137C268.967 275.093 268.967 274.907 269.099 274.863L269.873 274.605C270.219 274.49 270.49 274.219 270.605 273.873L270.863 273.099Z" fill="#C4FF00"/>
<path d="M256.431 193.515C249.524 171.129 218.662 154.25 181.625 154.25C150.21 154.25 123.249 166.393 111.567 183.728C109.534 183.577 107.467 183.5 105.375 183.5C75.8968 183.5 52 198.778 52 217.625C52 236.472 75.8968 251.75 105.375 251.75L250.25 251.75C275.517 251.75 296 238.654 296 222.5C296 207.686 278.775 195.444 256.431 193.515Z" fill="#BAB9B9"/>
<path d="M285.161 203.123C278.905 182.172 250.952 166.375 217.406 166.375C188.953 166.375 164.533 177.74 153.952 193.963C152.111 193.822 150.239 193.75 148.344 193.75C121.644 193.75 100 208.049 100 225.687C100 243.326 121.644 257.625 148.344 257.625H279.562C302.448 257.625 321 245.369 321 230.25C321 216.386 305.399 204.928 285.161 203.123Z" fill="white"/>
</svg>
