<svg width="360" height="380" viewBox="0 0 360 380" fill="none" xmlns="http://www.w3.org/2000/svg">
<rect width="360" height="380" fill="#0B0624"/>
<path d="M187.345 247.582C187.458 247.277 187.936 247.277 188.049 247.582L188.711 249.374C189.006 250.173 189.701 250.8 190.587 251.066L192.574 251.663C192.912 251.765 192.912 252.196 192.574 252.298L190.587 252.895C189.701 253.161 189.006 253.788 188.711 254.587L188.049 256.379C187.936 256.684 187.458 256.684 187.345 256.379L186.683 254.587C186.387 253.788 185.692 253.161 184.806 252.895L182.819 252.298C182.481 252.196 182.481 251.765 182.819 251.663L184.806 251.066C185.692 250.8 186.387 250.173 186.683 249.374L187.345 247.582Z" fill="#C4FF00"/>
<path d="M183.381 242.864C183.448 242.681 183.735 242.681 183.803 242.864L184.2 243.939C184.377 244.418 184.795 244.794 185.326 244.954L186.518 245.312C186.721 245.373 186.721 245.632 186.518 245.693L185.326 246.051C184.795 246.211 184.377 246.587 184.2 247.067L183.803 248.142C183.735 248.325 183.448 248.325 183.381 248.142L182.983 247.067C182.806 246.587 182.389 246.211 181.858 246.051L180.665 245.693C180.462 245.632 180.462 245.373 180.665 245.312L181.858 244.954C182.389 244.794 182.806 244.418 182.983 243.939L183.381 242.864Z" fill="#C4FF00"/>
<path d="M190.635 241.893C190.68 241.771 190.871 241.771 190.916 241.893L191.181 242.609C191.299 242.929 191.577 243.18 191.932 243.286L192.727 243.525C192.862 243.566 192.862 243.738 192.727 243.779L191.932 244.018C191.577 244.124 191.299 244.375 191.181 244.694L190.916 245.411C190.871 245.533 190.68 245.533 190.635 245.411L190.37 244.694C190.252 244.375 189.974 244.124 189.619 244.018L188.824 243.779C188.689 243.738 188.689 243.566 188.824 243.525L189.619 243.286C189.974 243.18 190.252 242.929 190.37 242.609L190.635 241.893Z" fill="#C4FF00"/>
<path d="M347.438 137.458C347.551 137.153 348.029 137.153 348.142 137.458L348.804 139.25C349.1 140.049 349.795 140.676 350.681 140.942L352.668 141.539C353.006 141.641 353.006 142.072 352.668 142.174L350.681 142.771C349.795 143.037 349.1 143.664 348.804 144.463L348.142 146.255C348.029 146.56 347.551 146.56 347.438 146.255L346.776 144.463C346.481 143.664 345.786 143.037 344.9 142.771L342.912 142.174C342.574 142.072 342.574 141.641 342.912 141.539L344.9 140.942C345.786 140.676 346.481 140.049 346.776 139.25L347.438 137.458Z" fill="#C4FF00"/>
<path d="M343.474 132.739C343.542 132.556 343.829 132.556 343.896 132.739L344.294 133.815C344.471 134.294 344.888 134.67 345.419 134.83L346.612 135.188C346.815 135.249 346.815 135.508 346.612 135.569L345.419 135.927C344.888 136.087 344.471 136.463 344.294 136.942L343.896 138.018C343.829 138.2 343.542 138.2 343.474 138.018L343.077 136.942C342.899 136.463 342.482 136.087 341.951 135.927L340.759 135.569C340.556 135.508 340.556 135.249 340.759 135.188L341.951 134.83C342.482 134.67 342.899 134.294 343.077 133.815L343.474 132.739Z" fill="#C4FF00"/>
<path d="M350.728 131.768C350.773 131.646 350.964 131.646 351.01 131.768L351.275 132.485C351.393 132.805 351.671 133.055 352.025 133.162L352.82 133.401C352.955 133.441 352.955 133.614 352.82 133.655L352.025 133.893C351.671 134 351.393 134.251 351.275 134.57L351.01 135.287C350.964 135.409 350.773 135.409 350.728 135.287L350.463 134.57C350.345 134.251 350.067 134 349.713 133.893L348.918 133.655C348.783 133.614 348.783 133.441 348.918 133.401L349.713 133.162C350.067 133.055 350.345 132.805 350.463 132.485L350.728 131.768Z" fill="#C4FF00"/>
<path d="M170.925 341.975C171.038 341.67 171.516 341.67 171.629 341.975L172.291 343.767C172.586 344.565 173.282 345.192 174.167 345.458L176.155 346.056C176.493 346.157 176.493 346.589 176.155 346.69L174.167 347.287C173.282 347.554 172.586 348.181 172.291 348.979L171.629 350.771C171.516 351.076 171.038 351.076 170.925 350.771L170.263 348.979C169.967 348.181 169.272 347.554 168.387 347.287L166.399 346.69C166.061 346.589 166.061 346.157 166.399 346.056L168.387 345.458C169.272 345.192 169.967 344.565 170.263 343.767L170.925 341.975Z" fill="#C4FF00"/>
<path d="M166.961 337.256C167.029 337.073 167.315 337.073 167.383 337.256L167.781 338.331C167.958 338.81 168.375 339.187 168.906 339.346L170.099 339.705C170.301 339.766 170.301 340.024 170.099 340.085L168.906 340.444C168.375 340.604 167.958 340.98 167.781 341.459L167.383 342.534C167.315 342.717 167.029 342.717 166.961 342.534L166.563 341.459C166.386 340.98 165.969 340.604 165.438 340.444L164.245 340.085C164.043 340.024 164.043 339.766 164.245 339.705L165.438 339.346C165.969 339.187 166.386 338.81 166.563 338.331L166.961 337.256Z" fill="#C4FF00"/>
<path d="M174.215 336.285C174.26 336.163 174.451 336.163 174.496 336.285L174.761 337.002C174.879 337.321 175.157 337.572 175.512 337.678L176.307 337.917C176.442 337.958 176.442 338.13 176.307 338.171L175.512 338.41C175.157 338.517 174.879 338.767 174.761 339.087L174.496 339.804C174.451 339.926 174.26 339.926 174.215 339.804L173.95 339.087C173.832 338.767 173.554 338.517 173.2 338.41L172.405 338.171C172.269 338.13 172.269 337.958 172.405 337.917L173.2 337.678C173.554 337.572 173.832 337.321 173.95 337.002L174.215 336.285Z" fill="#C4FF00"/>
<path d="M244.814 306.809C244.927 306.504 245.405 306.504 245.518 306.809L246.18 308.601C246.476 309.4 247.171 310.026 248.057 310.293L250.044 310.89C250.382 310.992 250.382 311.423 250.044 311.524L248.057 312.122C247.171 312.388 246.476 313.015 246.18 313.814L245.518 315.606C245.405 315.91 244.927 315.91 244.814 315.606L244.152 313.814C243.857 313.015 243.162 312.388 242.276 312.122L240.289 311.524C239.951 311.423 239.951 310.992 240.289 310.89L242.276 310.293C243.162 310.026 243.857 309.4 244.152 308.601L244.814 306.809Z" fill="#C4FF00"/>
<path d="M240.85 302.09C240.918 301.907 241.205 301.907 241.272 302.09L241.67 303.165C241.847 303.645 242.264 304.021 242.796 304.181L243.988 304.539C244.191 304.6 244.191 304.859 243.988 304.92L242.796 305.278C242.264 305.438 241.847 305.814 241.67 306.293L241.272 307.368C241.205 307.551 240.918 307.551 240.85 307.368L240.453 306.293C240.276 305.814 239.859 305.438 239.327 305.278L238.135 304.92C237.932 304.859 237.932 304.6 238.135 304.539L239.327 304.181C239.859 304.021 240.276 303.645 240.453 303.165L240.85 302.09Z" fill="#C4FF00"/>
<path d="M248.104 301.119C248.149 300.997 248.341 300.997 248.386 301.119L248.651 301.836C248.769 302.155 249.047 302.406 249.401 302.513L250.196 302.752C250.331 302.792 250.331 302.965 250.196 303.005L249.401 303.244C249.047 303.351 248.769 303.601 248.651 303.921L248.386 304.638C248.341 304.76 248.149 304.76 248.104 304.638L247.839 303.921C247.721 303.601 247.443 303.351 247.089 303.244L246.294 303.005C246.159 302.965 246.159 302.792 246.294 302.752L247.089 302.513C247.443 302.406 247.721 302.155 247.839 301.836L248.104 301.119Z" fill="#C4FF00"/>
<path d="M47.7765 65.2756C47.8892 64.9707 48.3674 64.9708 48.4801 65.2756L49.1425 67.0676C49.4377 67.8664 50.1328 68.4932 51.0186 68.7595L53.0059 69.3568C53.344 69.4584 53.344 69.8896 53.0059 69.9912L51.0186 70.5886C50.1328 70.8548 49.4377 71.4816 49.1425 72.2804L48.4801 74.0724C48.3674 74.3773 47.8892 74.3773 47.7765 74.0724L47.1141 72.2804C46.8188 71.4816 46.1237 70.8548 45.2379 70.5886L43.2506 69.9912C42.9125 69.8896 42.9125 69.4584 43.2506 69.3568L45.2379 68.7595C46.1237 68.4932 46.8188 67.8664 47.1141 67.0676L47.7765 65.2756Z" fill="#C4FF00"/>
<path d="M43.8122 60.5571C43.8799 60.3742 44.1668 60.3742 44.2344 60.5571L44.6318 61.6323C44.809 62.1115 45.226 62.4876 45.7575 62.6474L46.9499 63.0058C47.1527 63.0668 47.1527 63.3255 46.9499 63.3865L45.7575 63.7449C45.226 63.9046 44.809 64.2807 44.6318 64.76L44.2344 65.8352C44.1668 66.0181 43.8799 66.0181 43.8122 65.8352L43.4148 64.76C43.2376 64.2807 42.8206 63.9046 42.2891 63.7449L41.0967 63.3865C40.8939 63.3255 40.8939 63.0668 41.0967 63.0058L42.2891 62.6474C42.8206 62.4876 43.2376 62.1116 43.4148 61.6323L43.8122 60.5571Z" fill="#C4FF00"/>
<path d="M51.0663 59.5859C51.1113 59.464 51.3026 59.464 51.3477 59.5859L51.6127 60.3027C51.7308 60.6222 52.0088 60.873 52.3631 60.9795L53.158 61.2184C53.2933 61.2591 53.2933 61.4315 53.158 61.4722L52.3631 61.7111C52.0088 61.8176 51.7308 62.0684 51.6127 62.3879L51.3477 63.1047C51.3026 63.2266 51.1113 63.2266 51.0663 63.1047L50.8013 62.3879C50.6832 62.0684 50.4052 61.8176 50.0508 61.7111L49.2559 61.4722C49.1207 61.4315 49.1207 61.2591 49.2559 61.2184L50.0508 60.9795C50.4052 60.873 50.6832 60.6223 50.8013 60.3027L51.0663 59.5859Z" fill="#C4FF00"/>
<path d="M266.365 68.9773C266.478 68.6724 266.956 68.6724 267.069 68.9773L267.731 70.7693C268.027 71.568 268.722 72.1949 269.608 72.4611L271.595 73.0585C271.933 73.1601 271.933 73.5913 271.595 73.6929L269.608 74.2902C268.722 74.5565 268.027 75.1833 267.731 75.9821L267.069 77.7741C266.956 78.079 266.478 78.079 266.365 77.7741L265.703 75.9821C265.408 75.1833 264.713 74.5565 263.827 74.2902L261.839 73.6929C261.501 73.5913 261.501 73.1601 261.839 73.0585L263.827 72.4611C264.713 72.1949 265.408 71.5681 265.703 70.7693L266.365 68.9773Z" fill="#C4FF00"/>
<path d="M262.401 64.2587C262.469 64.0758 262.756 64.0758 262.823 64.2587L263.221 65.3339C263.398 65.8132 263.815 66.1893 264.346 66.3491L265.539 66.7075C265.742 66.7684 265.742 67.0272 265.539 67.0881L264.346 67.4465C263.815 67.6063 263.398 67.9824 263.221 68.4616L262.823 69.5369C262.756 69.7198 262.469 69.7198 262.401 69.5369L262.004 68.4616C261.826 67.9824 261.409 67.6063 260.878 67.4465L259.686 67.0881C259.483 67.0272 259.483 66.7684 259.686 66.7075L260.878 66.349C261.409 66.1893 261.826 65.8132 262.004 65.3339L262.401 64.2587Z" fill="#C4FF00"/>
<path d="M269.655 63.2876C269.7 63.1657 269.891 63.1657 269.937 63.2876L270.202 64.0044C270.32 64.3239 270.598 64.5746 270.952 64.6811L271.747 64.9201C271.882 64.9607 271.882 65.1332 271.747 65.1739L270.952 65.4128C270.598 65.5193 270.32 65.77 270.202 66.0895L269.937 66.8063C269.891 66.9283 269.7 66.9283 269.655 66.8063L269.39 66.0895C269.272 65.77 268.994 65.5193 268.64 65.4128L267.845 65.1739C267.71 65.1332 267.71 64.9607 267.845 64.9201L268.64 64.6811C268.994 64.5746 269.272 64.3239 269.39 64.0044L269.655 63.2876Z" fill="#C4FF00"/>
<path d="M167.846 98.5905C167.959 98.2857 168.437 98.2857 168.55 98.5905L169.212 100.383C169.508 101.181 170.203 101.808 171.089 102.074L173.076 102.672C173.414 102.773 173.414 103.205 173.076 103.306L171.089 103.903C170.203 104.17 169.508 104.797 169.212 105.595L168.55 107.387C168.437 107.692 167.959 107.692 167.846 107.387L167.184 105.595C166.889 104.797 166.194 104.17 165.308 103.903L163.321 103.306C162.982 103.205 162.982 102.773 163.321 102.672L165.308 102.074C166.194 101.808 166.889 101.181 167.184 100.383L167.846 98.5905Z" fill="#C4FF00"/>
<path d="M163.882 93.872C163.95 93.6891 164.237 93.6891 164.304 93.872L164.702 94.9472C164.879 95.4265 165.296 95.8025 165.827 95.9623L167.02 96.3207C167.223 96.3817 167.223 96.6404 167.02 96.7014L165.827 97.0598C165.296 97.2195 164.879 97.5956 164.702 98.0749L164.304 99.1501C164.237 99.333 163.95 99.333 163.882 99.1501L163.485 98.0749C163.308 97.5956 162.891 97.2195 162.359 97.0598L161.167 96.7014C160.964 96.6404 160.964 96.3817 161.167 96.3207L162.359 95.9623C162.891 95.8025 163.308 95.4265 163.485 94.9472L163.882 93.872Z" fill="#C4FF00"/>
<path d="M171.136 92.9008C171.181 92.7789 171.373 92.7789 171.418 92.9008L171.683 93.6176C171.801 93.9372 172.079 94.1879 172.433 94.2944L173.228 94.5333C173.363 94.574 173.363 94.7465 173.228 94.7871L172.433 95.026C172.079 95.1325 171.801 95.3833 171.683 95.7028L171.418 96.4196C171.373 96.5415 171.181 96.5415 171.136 96.4196L170.871 95.7028C170.753 95.3833 170.475 95.1325 170.121 95.026L169.326 94.7871C169.191 94.7465 169.191 94.574 169.326 94.5333L170.121 94.2944C170.475 94.1879 170.753 93.9372 170.871 93.6177L171.136 92.9008Z" fill="#C4FF00"/>
<path d="M312.546 247.582C312.659 247.277 313.137 247.277 313.25 247.582L313.912 249.374C314.207 250.173 314.902 250.8 315.788 251.066L317.776 251.663C318.114 251.765 318.114 252.196 317.776 252.298L315.788 252.895C314.902 253.161 314.207 253.788 313.912 254.587L313.25 256.379C313.137 256.684 312.659 256.684 312.546 256.379L311.884 254.587C311.588 253.788 310.893 253.161 310.008 252.895L308.02 252.298C307.682 252.196 307.682 251.765 308.02 251.663L310.008 251.066C310.893 250.8 311.588 250.173 311.884 249.374L312.546 247.582Z" fill="#C4FF00"/>
<path d="M308.582 242.864C308.65 242.681 308.936 242.681 309.004 242.864L309.401 243.939C309.579 244.418 309.996 244.794 310.527 244.954L311.72 245.312C311.922 245.373 311.922 245.632 311.72 245.693L310.527 246.051C309.996 246.211 309.579 246.587 309.401 247.067L309.004 248.142C308.936 248.325 308.65 248.325 308.582 248.142L308.184 247.067C308.007 246.587 307.59 246.211 307.059 246.051L305.866 245.693C305.664 245.632 305.664 245.373 305.866 245.312L307.059 244.954C307.59 244.794 308.007 244.418 308.184 243.939L308.582 242.864Z" fill="#C4FF00"/>
<path d="M315.836 241.893C315.881 241.771 316.072 241.771 316.117 241.893L316.382 242.609C316.5 242.929 316.778 243.18 317.133 243.286L317.928 243.525C318.063 243.566 318.063 243.738 317.928 243.779L317.133 244.018C316.778 244.124 316.5 244.375 316.382 244.694L316.117 245.411C316.072 245.533 315.881 245.533 315.836 245.411L315.571 244.694C315.453 244.375 315.175 244.124 314.82 244.018L314.026 243.779C313.89 243.738 313.89 243.566 314.026 243.525L314.82 243.286C315.175 243.18 315.453 242.929 315.571 242.609L315.836 241.893Z" fill="#C4FF00"/>
<path d="M63.1701 299.405C63.2828 299.101 63.761 299.101 63.8737 299.405L64.5361 301.197C64.8313 301.996 65.5264 302.623 66.4123 302.889L68.3995 303.487C68.7376 303.588 68.7376 304.019 68.3995 304.121L66.4123 304.718C65.5264 304.985 64.8313 305.612 64.5361 306.41L63.8737 308.202C63.761 308.507 63.2828 308.507 63.1701 308.202L62.5077 306.41C62.2124 305.611 61.5173 304.985 60.6315 304.718L58.6442 304.121C58.3062 304.019 58.3062 303.588 58.6442 303.487L60.6315 302.889C61.5173 302.623 62.2124 301.996 62.5077 301.197L63.1701 299.405Z" fill="#C4FF00"/>
<path d="M59.2059 294.687C59.2735 294.504 59.5604 294.504 59.628 294.687L60.0254 295.762C60.2026 296.241 60.6197 296.617 61.1512 296.777L62.3435 297.136C62.5464 297.197 62.5464 297.455 62.3435 297.516L61.1512 297.875C60.6197 298.034 60.2026 298.411 60.0254 298.89L59.628 299.965C59.5604 300.148 59.2735 300.148 59.2059 299.965L58.8084 298.89C58.6312 298.411 58.2142 298.034 57.6827 297.875L56.4903 297.516C56.2875 297.455 56.2875 297.197 56.4903 297.136L57.6827 296.777C58.2142 296.617 58.6312 296.241 58.8084 295.762L59.2059 294.687Z" fill="#C4FF00"/>
<path d="M66.4599 293.716C66.505 293.594 66.6962 293.594 66.7413 293.716L67.0063 294.433C67.1244 294.752 67.4024 295.003 67.7567 295.109L68.5517 295.348C68.6869 295.389 68.6869 295.561 68.5517 295.602L67.7567 295.841C67.4024 295.947 67.1244 296.198 67.0063 296.518L66.7413 297.235C66.6962 297.356 66.505 297.356 66.4599 297.235L66.1949 296.518C66.0768 296.198 65.7988 295.947 65.4444 295.841L64.6495 295.602C64.5143 295.561 64.5143 295.389 64.6495 295.348L65.4444 295.109C65.7988 295.003 66.0768 294.752 66.1949 294.433L66.4599 293.716Z" fill="#C4FF00"/>
<path d="M49.8289 123.577C49.9416 123.272 50.4198 123.272 50.5325 123.577L51.1949 125.369C51.4902 126.167 52.1853 126.794 53.0711 127.061L55.0583 127.658C55.3964 127.76 55.3964 128.191 55.0583 128.292L53.0711 128.89C52.1853 129.156 51.4902 129.783 51.1949 130.582L50.5325 132.374C50.4198 132.678 49.9416 132.678 49.8289 132.374L49.1665 130.582C48.8712 129.783 48.1761 129.156 47.2903 128.89L45.303 128.292C44.965 128.191 44.965 127.76 45.303 127.658L47.2903 127.061C48.1761 126.794 48.8712 126.167 49.1665 125.369L49.8289 123.577Z" fill="#C4FF00"/>
<path d="M45.8647 118.858C45.9323 118.675 46.2192 118.675 46.2868 118.858L46.6843 119.933C46.8614 120.413 47.2785 120.789 47.81 120.948L49.0023 121.307C49.2052 121.368 49.2052 121.627 49.0023 121.688L47.81 122.046C47.2785 122.206 46.8614 122.582 46.6843 123.061L46.2868 124.136C46.2192 124.319 45.9323 124.319 45.8647 124.136L45.4672 123.061C45.29 122.582 44.873 122.206 44.3415 122.046L43.1491 121.688C42.9463 121.627 42.9463 121.368 43.1491 121.307L44.3415 120.948C44.873 120.789 45.29 120.413 45.4672 119.933L45.8647 118.858Z" fill="#C4FF00"/>
<path d="M53.1187 117.887C53.1638 117.765 53.3551 117.765 53.4001 117.887L53.6651 118.604C53.7832 118.923 54.0612 119.174 54.4156 119.281L55.2105 119.52C55.3457 119.56 55.3457 119.733 55.2105 119.773L54.4156 120.012C54.0612 120.119 53.7832 120.369 53.6651 120.689L53.4001 121.406C53.3551 121.528 53.1638 121.528 53.1187 121.406L52.8537 120.689C52.7356 120.369 52.4576 120.119 52.1033 120.012L51.3083 119.773C51.1731 119.733 51.1731 119.56 51.3083 119.52L52.1033 119.281C52.4576 119.174 52.7356 118.923 52.8537 118.604L53.1187 117.887Z" fill="#C4FF00"/>
<path d="M11.8582 144.861C11.9708 144.556 12.449 144.556 12.5617 144.861L13.2241 146.653C13.5194 147.452 14.2145 148.079 15.1003 148.345L17.0876 148.942C17.4256 149.044 17.4256 149.475 17.0876 149.577L15.1003 150.174C14.2145 150.44 13.5194 151.067 13.2241 151.866L12.5617 153.658C12.449 153.963 11.9708 153.963 11.8582 153.658L11.1957 151.866C10.9004 151.067 10.2054 150.44 9.31954 150.174L7.33227 149.577C6.99421 149.475 6.99421 149.044 7.33227 148.942L9.31955 148.345C10.2054 148.079 10.9004 147.452 11.1957 146.653L11.8582 144.861Z" fill="#C4FF00"/>
<path d="M7.89391 140.143C7.96152 139.96 8.24844 139.96 8.31605 140.143L8.71349 141.218C8.89065 141.697 9.30771 142.073 9.8392 142.233L11.0316 142.591C11.2344 142.652 11.2344 142.911 11.0316 142.972L9.8392 143.33C9.30771 143.49 8.89065 143.866 8.71349 144.346L8.31605 145.421C8.24844 145.604 7.96152 145.604 7.89391 145.421L7.49645 144.346C7.31928 143.866 6.90222 143.49 6.37074 143.331L5.17838 142.972C4.97553 142.911 4.97553 142.652 5.17838 142.591L6.37074 142.233C6.90223 142.073 7.31928 141.697 7.49645 141.218L7.89391 140.143Z" fill="#C4FF00"/>
<path d="M15.1479 139.172C15.193 139.05 15.3843 139.05 15.4294 139.172L15.6943 139.888C15.8124 140.208 16.0905 140.459 16.4448 140.565L17.2397 140.804C17.3749 140.845 17.3749 141.017 17.2397 141.058L16.4448 141.297C16.0905 141.403 15.8124 141.654 15.6943 141.974L15.4294 142.69C15.3843 142.812 15.193 142.812 15.1479 142.69L14.883 141.973C14.7649 141.654 14.4868 141.403 14.1325 141.297L13.3376 141.058C13.2024 141.017 13.2024 140.845 13.3376 140.804L14.1325 140.565C14.4868 140.459 14.7649 140.208 14.883 139.888L15.1479 139.172Z" fill="#C4FF00"/>
<path d="M256.103 21.7811C256.216 21.4763 256.694 21.4763 256.807 21.7811L257.469 23.5731C257.764 24.3719 258.459 24.9987 259.345 25.265L261.332 25.8623C261.671 25.9639 261.671 26.3951 261.332 26.4968L259.345 27.0941C258.459 27.3604 257.764 27.9872 257.469 28.786L256.807 30.578C256.694 30.8828 256.216 30.8828 256.103 30.578L255.441 28.7859C255.145 27.9872 254.45 27.3604 253.564 27.0941L251.577 26.4968C251.239 26.3951 251.239 25.9639 251.577 25.8623L253.564 25.265C254.45 24.9987 255.145 24.3719 255.441 23.5731L256.103 21.7811Z" fill="#C4FF00"/>
<path d="M252.139 17.0626C252.206 16.8797 252.493 16.8797 252.561 17.0626L252.958 18.1378C253.136 18.6171 253.553 18.9932 254.084 19.1529L255.276 19.5113C255.479 19.5723 255.479 19.831 255.276 19.892L254.084 20.2504C253.553 20.4101 253.136 20.7862 252.958 21.2655L252.561 22.3407C252.493 22.5236 252.206 22.5236 252.139 22.3407L251.741 21.2655C251.564 20.7862 251.147 20.4101 250.616 20.2504L249.423 19.892C249.22 19.831 249.22 19.5723 249.423 19.5113L250.616 19.1529C251.147 18.9932 251.564 18.6171 251.741 18.1378L252.139 17.0626Z" fill="#C4FF00"/>
<path d="M259.393 16.0915C259.438 15.9695 259.629 15.9695 259.674 16.0915L259.939 16.8083C260.057 17.1278 260.335 17.3785 260.69 17.485L261.485 17.7239C261.62 17.7646 261.62 17.9371 261.485 17.9777L260.69 18.2166C260.335 18.3232 260.057 18.5739 259.939 18.8934L259.674 19.6102C259.629 19.7321 259.438 19.7321 259.393 19.6102L259.128 18.8934C259.01 18.5739 258.732 18.3232 258.377 18.2167L257.582 17.9777C257.447 17.9371 257.447 17.7646 257.582 17.7239L258.377 17.485C258.732 17.3785 259.01 17.1278 259.128 16.8083L259.393 16.0915Z" fill="#C4FF00"/>
<path d="M114.482 148.563C114.595 148.258 115.073 148.258 115.186 148.563L115.848 150.355C116.143 151.154 116.838 151.78 117.724 152.047L119.711 152.644C120.05 152.746 120.05 153.177 119.711 153.279L117.724 153.876C116.838 154.142 116.143 154.769 115.848 155.568L115.186 157.36C115.073 157.665 114.595 157.665 114.482 157.36L113.82 155.568C113.524 154.769 112.829 154.142 111.943 153.876L109.956 153.279C109.618 153.177 109.618 152.746 109.956 152.644L111.943 152.047C112.829 151.78 113.524 151.154 113.82 150.355L114.482 148.563Z" fill="#C4FF00"/>
<path d="M110.518 143.844C110.585 143.661 110.872 143.661 110.94 143.844L111.337 144.92C111.515 145.399 111.932 145.775 112.463 145.935L113.655 146.293C113.858 146.354 113.858 146.613 113.655 146.674L112.463 147.032C111.932 147.192 111.515 147.568 111.337 148.047L110.94 149.122C110.872 149.305 110.585 149.305 110.518 149.122L110.12 148.047C109.943 147.568 109.526 147.192 108.995 147.032L107.802 146.674C107.599 146.613 107.599 146.354 107.802 146.293L108.995 145.935C109.526 145.775 109.943 145.399 110.12 144.92L110.518 143.844Z" fill="#C4FF00"/>
<path d="M117.772 142.873C117.817 142.751 118.008 142.751 118.053 142.873L118.318 143.59C118.436 143.91 118.714 144.16 119.069 144.267L119.864 144.506C119.999 144.546 119.999 144.719 119.864 144.759L119.069 144.998C118.714 145.105 118.436 145.356 118.318 145.675L118.053 146.392C118.008 146.514 117.817 146.514 117.772 146.392L117.507 145.675C117.389 145.356 117.111 145.105 116.756 144.998L115.961 144.759C115.826 144.719 115.826 144.546 115.961 144.506L116.756 144.267C117.111 144.16 117.389 143.91 117.507 143.59L117.772 142.873Z" fill="#C4FF00"/>
<path d="M44.6978 247.582C44.8105 247.277 45.2887 247.277 45.4014 247.582L46.0638 249.374C46.3591 250.173 47.0542 250.8 47.94 251.066L49.9272 251.663C50.2653 251.765 50.2653 252.196 49.9272 252.298L47.94 252.895C47.0542 253.161 46.3591 253.788 46.0638 254.587L45.4014 256.379C45.2887 256.684 44.8105 256.684 44.6978 256.379L44.0354 254.587C43.7401 253.788 43.045 253.161 42.1592 252.895L40.1719 252.298C39.8339 252.196 39.8339 251.765 40.1719 251.663L42.1592 251.066C43.045 250.8 43.7401 250.173 44.0354 249.374L44.6978 247.582Z" fill="#C4FF00"/>
<path d="M40.7336 242.864C40.8012 242.681 41.0881 242.681 41.1557 242.864L41.5532 243.939C41.7303 244.418 42.1474 244.794 42.6789 244.954L43.8712 245.312C44.0741 245.373 44.0741 245.632 43.8712 245.693L42.6789 246.051C42.1474 246.211 41.7303 246.587 41.5532 247.067L41.1557 248.142C41.0881 248.325 40.8012 248.325 40.7336 248.142L40.3361 247.067C40.1589 246.587 39.7419 246.211 39.2104 246.051L38.018 245.693C37.8152 245.632 37.8152 245.373 38.018 245.312L39.2104 244.954C39.7419 244.794 40.1589 244.418 40.3361 243.939L40.7336 242.864Z" fill="#C4FF00"/>
<path d="M47.9876 241.893C48.0327 241.771 48.2239 241.771 48.269 241.893L48.534 242.609C48.6521 242.929 48.9301 243.18 49.2845 243.286L50.0794 243.525C50.2146 243.566 50.2146 243.738 50.0794 243.779L49.2845 244.018C48.9301 244.124 48.6521 244.375 48.534 244.694L48.269 245.411C48.2239 245.533 48.0327 245.533 47.9876 245.411L47.7226 244.694C47.6045 244.375 47.3265 244.124 46.9722 244.018L46.1772 243.779C46.042 243.738 46.042 243.566 46.1772 243.525L46.9722 243.286C47.3265 243.18 47.6045 242.929 47.7226 242.609L47.9876 241.893Z" fill="#C4FF00"/>
<path d="M170.925 33.8115C171.038 33.5067 171.516 33.5067 171.629 33.8115L172.291 35.6035C172.586 36.4023 173.282 37.0291 174.167 37.2954L176.155 37.8927C176.493 37.9943 176.493 38.4255 176.155 38.5272L174.167 39.1245C173.282 39.3908 172.586 40.0176 172.291 40.8163L171.629 42.6084C171.516 42.9132 171.038 42.9132 170.925 42.6084L170.263 40.8163C169.967 40.0176 169.272 39.3908 168.387 39.1245L166.399 38.5272C166.061 38.4255 166.061 37.9943 166.399 37.8927L168.387 37.2954C169.272 37.0291 169.967 36.4023 170.263 35.6035L170.925 33.8115Z" fill="#C4FF00"/>
<path d="M166.961 29.093C167.029 28.9101 167.315 28.9101 167.383 29.093L167.781 30.1682C167.958 30.6475 168.375 31.0235 168.906 31.1833L170.099 31.5417C170.301 31.6027 170.301 31.8614 170.099 31.9224L168.906 32.2808C168.375 32.4405 167.958 32.8166 167.781 33.2959L167.383 34.3711C167.315 34.554 167.029 34.554 166.961 34.3711L166.563 33.2959C166.386 32.8166 165.969 32.4405 165.438 32.2808L164.245 31.9224C164.043 31.8614 164.043 31.6027 164.245 31.5417L165.438 31.1833C165.969 31.0235 166.386 30.6475 166.563 30.1682L166.961 29.093Z" fill="#C4FF00"/>
<path d="M174.215 28.1218C174.26 27.9999 174.451 27.9999 174.496 28.1218L174.761 28.8386C174.879 29.1582 175.157 29.4089 175.512 29.5154L176.307 29.7543C176.442 29.795 176.442 29.9675 176.307 30.0081L175.512 30.247C175.157 30.3535 174.879 30.6043 174.761 30.9238L174.496 31.6406C174.451 31.7625 174.26 31.7625 174.215 31.6406L173.95 30.9238C173.832 30.6043 173.554 30.3535 173.2 30.247L172.405 30.0081C172.269 29.9675 172.269 29.795 172.405 29.7543L173.2 29.5154C173.554 29.4089 173.832 29.1582 173.95 28.8387L174.215 28.1218Z" fill="#C4FF00"/>
<path d="M306.389 98.5905C306.501 98.2857 306.98 98.2857 307.092 98.5905L307.755 100.383C308.05 101.181 308.745 101.808 309.631 102.074L311.618 102.672C311.956 102.773 311.956 103.205 311.618 103.306L309.631 103.903C308.745 104.17 308.05 104.797 307.755 105.595L307.092 107.387C306.98 107.692 306.501 107.692 306.389 107.387L305.726 105.595C305.431 104.797 304.736 104.17 303.85 103.903L301.863 103.306C301.525 103.205 301.525 102.773 301.863 102.672L303.85 102.074C304.736 101.808 305.431 101.181 305.726 100.383L306.389 98.5905Z" fill="#C4FF00"/>
<path d="M302.424 93.872C302.492 93.6891 302.779 93.6891 302.847 93.872L303.244 94.9472C303.421 95.4265 303.838 95.8025 304.37 95.9623L305.562 96.3207C305.765 96.3817 305.765 96.6404 305.562 96.7014L304.37 97.0598C303.838 97.2195 303.421 97.5956 303.244 98.0749L302.847 99.1501C302.779 99.333 302.492 99.333 302.424 99.1501L302.027 98.0749C301.85 97.5956 301.433 97.2195 300.901 97.0598L299.709 96.7014C299.506 96.6404 299.506 96.3817 299.709 96.3207L300.901 95.9623C301.433 95.8025 301.85 95.4265 302.027 94.9472L302.424 93.872Z" fill="#C4FF00"/>
<path d="M309.678 92.9008C309.724 92.7789 309.915 92.7789 309.96 92.9008L310.225 93.6176C310.343 93.9372 310.621 94.1879 310.975 94.2944L311.77 94.5333C311.905 94.574 311.905 94.7465 311.77 94.7871L310.975 95.026C310.621 95.1325 310.343 95.3833 310.225 95.7028L309.96 96.4196C309.915 96.5415 309.724 96.5415 309.678 96.4196L309.413 95.7028C309.295 95.3833 309.017 95.1325 308.663 95.026L307.868 94.7871C307.733 94.7465 307.733 94.574 307.868 94.5333L308.663 94.2944C309.017 94.1879 309.295 93.9372 309.413 93.6177L309.678 92.9008Z" fill="#C4FF00"/>
<path d="M253.024 254.986C253.137 254.681 253.615 254.681 253.728 254.986L254.39 256.778C254.686 257.576 255.381 258.203 256.266 258.469L258.254 259.067C258.592 259.168 258.592 259.6 258.254 259.701L256.266 260.299C255.381 260.565 254.686 261.192 254.39 261.99L253.728 263.782C253.615 264.087 253.137 264.087 253.024 263.782L252.362 261.99C252.067 261.192 251.371 260.565 250.486 260.299L248.498 259.701C248.16 259.6 248.16 259.168 248.498 259.067L250.486 258.469C251.371 258.203 252.067 257.576 252.362 256.778L253.024 254.986Z" fill="#C4FF00"/>
<path d="M249.06 250.267C249.128 250.084 249.415 250.084 249.482 250.267L249.88 251.342C250.057 251.821 250.474 252.198 251.005 252.357L252.198 252.716C252.401 252.777 252.401 253.035 252.198 253.096L251.005 253.455C250.474 253.615 250.057 253.991 249.88 254.47L249.482 255.545C249.415 255.728 249.128 255.728 249.06 255.545L248.663 254.47C248.485 253.991 248.068 253.615 247.537 253.455L246.345 253.096C246.142 253.035 246.142 252.777 246.345 252.716L247.537 252.357C248.068 252.198 248.485 251.821 248.663 251.342L249.06 250.267Z" fill="#C4FF00"/>
<path d="M256.314 249.296C256.359 249.174 256.55 249.174 256.596 249.296L256.86 250.013C256.979 250.332 257.257 250.583 257.611 250.689L258.406 250.928C258.541 250.969 258.541 251.141 258.406 251.182L257.611 251.421C257.257 251.528 256.979 251.778 256.86 252.098L256.596 252.815C256.55 252.937 256.359 252.937 256.314 252.815L256.049 252.098C255.931 251.778 255.653 251.528 255.299 251.421L254.504 251.182C254.368 251.141 254.368 250.969 254.504 250.928L255.299 250.689C255.653 250.583 255.931 250.332 256.049 250.013L256.314 249.296Z" fill="#C4FF00"/>
<path d="M256.431 190.999C249.524 168.789 218.662 152.042 181.625 152.042C150.21 152.042 123.249 164.09 111.567 181.289C109.534 181.139 107.467 181.063 105.375 181.063C75.8968 181.063 52 196.221 52 214.92C52 233.619 75.8968 248.778 105.375 248.778L250.25 248.778C275.517 248.778 296 235.785 296 219.757C296 205.059 278.775 192.913 256.431 190.999Z" fill="#BAB9B9"/>
<path d="M285.161 200.532C278.905 179.745 250.952 164.072 217.406 164.072C188.953 164.072 164.533 175.348 153.953 191.444C152.111 191.304 150.239 191.232 148.344 191.232C121.644 191.232 100 205.419 100 222.92C100 240.42 121.644 254.607 148.344 254.607H279.563C302.448 254.607 321 242.447 321 227.446C321 213.691 305.399 202.323 285.161 200.532Z" fill="white"/>
</svg>
