<svg width="269" height="160" viewBox="0 0 269 160" fill="none" xmlns="http://www.w3.org/2000/svg">
<path d="M204.431 68.5147C197.524 46.1293 166.662 29.25 129.625 29.25C98.2104 29.25 71.249 41.3932 59.5675 58.7277C57.5339 58.5772 55.4674 58.5 53.375 58.5C23.8968 58.5 0 73.7783 0 92.625C0 111.472 23.8968 126.75 53.375 126.75L198.25 126.75C223.517 126.75 244 113.654 244 97.5C244 82.6859 226.775 70.4441 204.431 68.5147Z" fill="#BAB9B9"/>
<path d="M233.161 78.1227C226.905 57.1723 198.952 41.375 165.406 41.375C136.953 41.375 112.533 52.7398 101.952 68.9631C100.111 68.8223 98.2389 68.75 96.3438 68.75C69.6442 68.75 48 83.0489 48 100.687C48 118.326 69.6442 132.625 96.3438 132.625H227.562C250.448 132.625 269 120.369 269 105.25C269 91.3856 253.399 79.9284 233.161 78.1227Z" fill="white"/>
</svg>
