<svg width="50" height="50" viewBox="0 0 50 50" fill="none" xmlns="http://www.w3.org/2000/svg">
<circle cx="25" cy="25" r="25" fill="#191040"/>
<path d="M20.0007 5.69576C20.4563 6.25109 20.6117 7.08803 20.2017 7.84032C18.8003 10.4119 18.0038 13.3575 18.0038 16.4921C18.0038 26.5432 26.2007 34.6817 36.3004 34.6817C37.6164 34.6817 38.8985 34.5438 40.1335 34.2822C40.978 34.1033 41.746 34.4851 42.1578 35.0715C42.5826 35.6766 42.6716 36.5795 42.0796 37.3061C38.2584 41.9963 32.4119 45 25.8589 45C14.3336 45 5 35.7159 5 24.2751C5 15.6645 10.2854 8.27992 17.8088 5.15022C18.6781 4.78862 19.5307 5.12273 20.0007 5.69576Z" fill="#D4D4D4"/>
</svg>
