<svg width="343" height="362" viewBox="0 0 343 362" fill="none" xmlns="http://www.w3.org/2000/svg">
<path d="M178.657 250.247C178.767 249.918 179.233 249.918 179.343 250.247L179.988 252.183C180.276 253.047 180.953 253.724 181.816 254.012L183.753 254.657C184.082 254.767 184.082 255.233 183.753 255.343L181.816 255.988C180.953 256.276 180.276 256.953 179.988 257.816L179.343 259.753C179.233 260.082 178.767 260.082 178.657 259.753L178.012 257.816C177.724 256.953 177.047 256.276 176.184 255.988L174.247 255.343C173.918 255.233 173.918 254.767 174.247 254.657L176.184 254.012C177.047 253.724 177.724 253.047 178.012 252.184L178.657 250.247Z" fill="#C4FF00"/>
<path d="M174.794 245.148C174.86 244.951 175.14 244.951 175.206 245.148L175.593 246.31C175.766 246.828 176.172 247.234 176.69 247.407L177.852 247.794C178.049 247.86 178.049 248.14 177.852 248.206L176.69 248.593C176.172 248.766 175.766 249.172 175.593 249.69L175.206 250.852C175.14 251.049 174.86 251.049 174.794 250.852L174.407 249.69C174.234 249.172 173.828 248.766 173.31 248.593L172.148 248.206C171.951 248.14 171.951 247.86 172.148 247.794L173.31 247.407C173.828 247.234 174.234 246.828 174.407 246.31L174.794 245.148Z" fill="#C4FF00"/>
<path d="M181.863 244.099C181.907 243.967 182.093 243.967 182.137 244.099L182.395 244.873C182.51 245.219 182.781 245.49 183.127 245.605L183.901 245.863C184.033 245.907 184.033 246.093 183.901 246.137L183.127 246.395C182.781 246.51 182.51 246.781 182.395 247.127L182.137 247.901C182.093 248.033 181.907 248.033 181.863 247.901L181.605 247.127C181.49 246.781 181.219 246.51 180.873 246.395L180.099 246.137C179.967 246.093 179.967 245.907 180.099 245.863L180.873 245.605C181.219 245.49 181.49 245.219 181.605 244.873L181.863 244.099Z" fill="#C4FF00"/>
<path d="M334.657 131.247C334.767 130.918 335.233 130.918 335.343 131.247L335.988 133.183C336.276 134.047 336.953 134.724 337.816 135.012L339.753 135.657C340.082 135.767 340.082 136.233 339.753 136.343L337.816 136.988C336.953 137.276 336.276 137.953 335.988 138.816L335.343 140.753C335.233 141.082 334.767 141.082 334.657 140.753L334.012 138.816C333.724 137.953 333.047 137.276 332.184 136.988L330.247 136.343C329.918 136.233 329.918 135.767 330.247 135.657L332.184 135.012C333.047 134.724 333.724 134.047 334.012 133.184L334.657 131.247Z" fill="#C4FF00"/>
<path d="M330.794 126.148C330.86 125.951 331.14 125.951 331.206 126.148L331.593 127.31C331.766 127.828 332.172 128.234 332.69 128.407L333.852 128.794C334.049 128.86 334.049 129.14 333.852 129.206L332.69 129.593C332.172 129.766 331.766 130.172 331.593 130.69L331.206 131.852C331.14 132.049 330.86 132.049 330.794 131.852L330.407 130.69C330.234 130.172 329.828 129.766 329.31 129.593L328.148 129.206C327.951 129.14 327.951 128.86 328.148 128.794L329.31 128.407C329.828 128.234 330.234 127.828 330.407 127.31L330.794 126.148Z" fill="#C4FF00"/>
<path d="M337.863 125.099C337.907 124.967 338.093 124.967 338.137 125.099L338.395 125.873C338.51 126.219 338.781 126.49 339.127 126.605L339.901 126.863C340.033 126.907 340.033 127.093 339.901 127.137L339.127 127.395C338.781 127.51 338.51 127.781 338.395 128.127L338.137 128.901C338.093 129.033 337.907 129.033 337.863 128.901L337.605 128.127C337.49 127.781 337.219 127.51 336.873 127.395L336.099 127.137C335.967 127.093 335.967 126.907 336.099 126.863L336.873 126.605C337.219 126.49 337.49 126.219 337.605 125.873L337.863 125.099Z" fill="#C4FF00"/>
<path d="M162.657 352.247C162.767 351.918 163.233 351.918 163.343 352.247L163.988 354.183C164.276 355.047 164.953 355.724 165.816 356.012L167.753 356.657C168.082 356.767 168.082 357.233 167.753 357.343L165.816 357.988C164.953 358.276 164.276 358.953 163.988 359.816L163.343 361.753C163.233 362.082 162.767 362.082 162.657 361.753L162.012 359.816C161.724 358.953 161.047 358.276 160.184 357.988L158.247 357.343C157.918 357.233 157.918 356.767 158.247 356.657L160.184 356.012C161.047 355.724 161.724 355.047 162.012 354.184L162.657 352.247Z" fill="#C4FF00"/>
<path d="M158.794 347.148C158.86 346.951 159.14 346.951 159.206 347.148L159.593 348.31C159.766 348.828 160.172 349.234 160.69 349.407L161.852 349.794C162.049 349.86 162.049 350.14 161.852 350.206L160.69 350.593C160.172 350.766 159.766 351.172 159.593 351.69L159.206 352.852C159.14 353.049 158.86 353.049 158.794 352.852L158.407 351.69C158.234 351.172 157.828 350.766 157.31 350.593L156.148 350.206C155.951 350.14 155.951 349.86 156.148 349.794L157.31 349.407C157.828 349.234 158.234 348.828 158.407 348.31L158.794 347.148Z" fill="#C4FF00"/>
<path d="M165.863 346.099C165.907 345.967 166.093 345.967 166.137 346.099L166.395 346.873C166.51 347.219 166.781 347.49 167.127 347.605L167.901 347.863C168.033 347.907 168.033 348.093 167.901 348.137L167.127 348.395C166.781 348.51 166.51 348.781 166.395 349.127L166.137 349.901C166.093 350.033 165.907 350.033 165.863 349.901L165.605 349.127C165.49 348.781 165.219 348.51 164.873 348.395L164.099 348.137C163.967 348.093 163.967 347.907 164.099 347.863L164.873 347.605C165.219 347.49 165.49 347.219 165.605 346.873L165.863 346.099Z" fill="#C4FF00"/>
<path d="M234.657 314.247C234.767 313.918 235.233 313.918 235.343 314.247L235.988 316.183C236.276 317.047 236.953 317.724 237.816 318.012L239.753 318.657C240.082 318.767 240.082 319.233 239.753 319.343L237.816 319.988C236.953 320.276 236.276 320.953 235.988 321.816L235.343 323.753C235.233 324.082 234.767 324.082 234.657 323.753L234.012 321.816C233.724 320.953 233.047 320.276 232.184 319.988L230.247 319.343C229.918 319.233 229.918 318.767 230.247 318.657L232.184 318.012C233.047 317.724 233.724 317.047 234.012 316.184L234.657 314.247Z" fill="#C4FF00"/>
<path d="M230.794 309.148C230.86 308.951 231.14 308.951 231.206 309.148L231.593 310.31C231.766 310.828 232.172 311.234 232.69 311.407L233.852 311.794C234.049 311.86 234.049 312.14 233.852 312.206L232.69 312.593C232.172 312.766 231.766 313.172 231.593 313.69L231.206 314.852C231.14 315.049 230.86 315.049 230.794 314.852L230.407 313.69C230.234 313.172 229.828 312.766 229.31 312.593L228.148 312.206C227.951 312.14 227.951 311.86 228.148 311.794L229.31 311.407C229.828 311.234 230.234 310.828 230.407 310.31L230.794 309.148Z" fill="#C4FF00"/>
<path d="M237.863 308.099C237.907 307.967 238.093 307.967 238.137 308.099L238.395 308.873C238.51 309.219 238.781 309.49 239.127 309.605L239.901 309.863C240.033 309.907 240.033 310.093 239.901 310.137L239.127 310.395C238.781 310.51 238.51 310.781 238.395 311.127L238.137 311.901C238.093 312.033 237.907 312.033 237.863 311.901L237.605 311.127C237.49 310.781 237.219 310.51 236.873 310.395L236.099 310.137C235.967 310.093 235.967 309.907 236.099 309.863L236.873 309.605C237.219 309.49 237.49 309.219 237.605 308.873L237.863 308.099Z" fill="#C4FF00"/>
<path d="M42.6572 53.2471C42.767 52.9176 43.233 52.9176 43.3428 53.2471L43.9883 55.1835C44.276 56.0467 44.9533 56.724 45.8165 57.0117L47.7529 57.6572C48.0824 57.767 48.0824 58.233 47.7529 58.3428L45.8165 58.9883C44.9533 59.276 44.276 59.9533 43.9883 60.8165L43.3428 62.7529C43.233 63.0823 42.767 63.0823 42.6572 62.7529L42.0117 60.8165C41.724 59.9533 41.0467 59.276 40.1835 58.9883L38.2471 58.3428C37.9176 58.233 37.9176 57.767 38.2471 57.6572L40.1835 57.0117C41.0467 56.724 41.724 56.0467 42.0117 55.1835L42.6572 53.2471Z" fill="#C4FF00"/>
<path d="M38.7943 48.1482C38.8602 47.9506 39.1398 47.9506 39.2057 48.1482L39.593 49.3101C39.7656 49.828 40.172 50.2344 40.6899 50.407L41.8518 50.7943C42.0494 50.8602 42.0494 51.1398 41.8518 51.2057L40.6899 51.593C40.172 51.7656 39.7656 52.172 39.593 52.6899L39.2057 53.8518C39.1398 54.0494 38.8602 54.0494 38.7943 53.8518L38.407 52.6899C38.2344 52.172 37.828 51.7656 37.3101 51.593L36.1482 51.2057C35.9506 51.1398 35.9506 50.8602 36.1482 50.7943L37.3101 50.407C37.828 50.2344 38.2344 49.828 38.407 49.3101L38.7943 48.1482Z" fill="#C4FF00"/>
<path d="M45.8629 47.0988C45.9068 46.9671 46.0932 46.9671 46.1371 47.0988L46.3953 47.8734C46.5104 48.2187 46.7813 48.4896 47.1266 48.6047L47.9012 48.8629C48.0329 48.9068 48.0329 49.0932 47.9012 49.1371L47.1266 49.3953C46.7813 49.5104 46.5104 49.7813 46.3953 50.1266L46.1371 50.9012C46.0932 51.0329 45.9068 51.0329 45.8629 50.9012L45.6047 50.1266C45.4896 49.7813 45.2187 49.5104 44.8734 49.3953L44.0988 49.1371C43.9671 49.0932 43.9671 48.9068 44.0988 48.8629L44.8734 48.6047C45.2187 48.4896 45.4896 48.2187 45.6047 47.8734L45.8629 47.0988Z" fill="#C4FF00"/>
<path d="M255.657 57.2471C255.767 56.9176 256.233 56.9176 256.343 57.2471L256.988 59.1835C257.276 60.0467 257.953 60.724 258.816 61.0117L260.753 61.6572C261.082 61.767 261.082 62.233 260.753 62.3428L258.816 62.9883C257.953 63.276 257.276 63.9533 256.988 64.8165L256.343 66.7529C256.233 67.0823 255.767 67.0823 255.657 66.7529L255.012 64.8165C254.724 63.9533 254.047 63.276 253.184 62.9883L251.247 62.3428C250.918 62.233 250.918 61.767 251.247 61.6572L253.184 61.0117C254.047 60.724 254.724 60.0467 255.012 59.1835L255.657 57.2471Z" fill="#C4FF00"/>
<path d="M251.794 52.1482C251.86 51.9506 252.14 51.9506 252.206 52.1482L252.593 53.3101C252.766 53.828 253.172 54.2344 253.69 54.407L254.852 54.7943C255.049 54.8602 255.049 55.1398 254.852 55.2057L253.69 55.593C253.172 55.7656 252.766 56.172 252.593 56.6899L252.206 57.8518C252.14 58.0494 251.86 58.0494 251.794 57.8518L251.407 56.6899C251.234 56.172 250.828 55.7656 250.31 55.593L249.148 55.2057C248.951 55.1398 248.951 54.8602 249.148 54.7943L250.31 54.407C250.828 54.2344 251.234 53.828 251.407 53.3101L251.794 52.1482Z" fill="#C4FF00"/>
<path d="M258.863 51.0988C258.907 50.9671 259.093 50.9671 259.137 51.0988L259.395 51.8734C259.51 52.2187 259.781 52.4896 260.127 52.6047L260.901 52.8629C261.033 52.9068 261.033 53.0932 260.901 53.1371L260.127 53.3953C259.781 53.5104 259.51 53.7813 259.395 54.1266L259.137 54.9012C259.093 55.0329 258.907 55.0329 258.863 54.9012L258.605 54.1266C258.49 53.7813 258.219 53.5104 257.873 53.3953L257.099 53.1371C256.967 53.0932 256.967 52.9068 257.099 52.8629L257.873 52.6047C258.219 52.4896 258.49 52.2187 258.605 51.8734L258.863 51.0988Z" fill="#C4FF00"/>
<path d="M159.657 89.2471C159.767 88.9176 160.233 88.9176 160.343 89.2471L160.988 91.1835C161.276 92.0467 161.953 92.724 162.816 93.0117L164.753 93.6572C165.082 93.767 165.082 94.233 164.753 94.3428L162.816 94.9883C161.953 95.276 161.276 95.9533 160.988 96.8165L160.343 98.7529C160.233 99.0823 159.767 99.0823 159.657 98.7529L159.012 96.8165C158.724 95.9533 158.047 95.276 157.184 94.9883L155.247 94.3428C154.918 94.233 154.918 93.767 155.247 93.6572L157.184 93.0117C158.047 92.724 158.724 92.0467 159.012 91.1835L159.657 89.2471Z" fill="#C4FF00"/>
<path d="M155.794 84.1482C155.86 83.9506 156.14 83.9506 156.206 84.1482L156.593 85.3101C156.766 85.828 157.172 86.2344 157.69 86.407L158.852 86.7943C159.049 86.8602 159.049 87.1398 158.852 87.2057L157.69 87.593C157.172 87.7656 156.766 88.172 156.593 88.6899L156.206 89.8518C156.14 90.0494 155.86 90.0494 155.794 89.8518L155.407 88.6899C155.234 88.172 154.828 87.7656 154.31 87.593L153.148 87.2057C152.951 87.1398 152.951 86.8602 153.148 86.7943L154.31 86.407C154.828 86.2344 155.234 85.828 155.407 85.3101L155.794 84.1482Z" fill="#C4FF00"/>
<path d="M162.863 83.0988C162.907 82.9671 163.093 82.9671 163.137 83.0988L163.395 83.8734C163.51 84.2187 163.781 84.4896 164.127 84.6047L164.901 84.8629C165.033 84.9068 165.033 85.0932 164.901 85.1371L164.127 85.3953C163.781 85.5104 163.51 85.7813 163.395 86.1266L163.137 86.9012C163.093 87.0329 162.907 87.0329 162.863 86.9012L162.605 86.1266C162.49 85.7813 162.219 85.5104 161.873 85.3953L161.099 85.1371C160.967 85.0932 160.967 84.9068 161.099 84.8629L161.873 84.6047C162.219 84.4896 162.49 84.2187 162.605 83.8734L162.863 83.0988Z" fill="#C4FF00"/>
<path d="M300.657 250.247C300.767 249.918 301.233 249.918 301.343 250.247L301.988 252.183C302.276 253.047 302.953 253.724 303.816 254.012L305.753 254.657C306.082 254.767 306.082 255.233 305.753 255.343L303.816 255.988C302.953 256.276 302.276 256.953 301.988 257.816L301.343 259.753C301.233 260.082 300.767 260.082 300.657 259.753L300.012 257.816C299.724 256.953 299.047 256.276 298.184 255.988L296.247 255.343C295.918 255.233 295.918 254.767 296.247 254.657L298.184 254.012C299.047 253.724 299.724 253.047 300.012 252.184L300.657 250.247Z" fill="#C4FF00"/>
<path d="M296.794 245.148C296.86 244.951 297.14 244.951 297.206 245.148L297.593 246.31C297.766 246.828 298.172 247.234 298.69 247.407L299.852 247.794C300.049 247.86 300.049 248.14 299.852 248.206L298.69 248.593C298.172 248.766 297.766 249.172 297.593 249.69L297.206 250.852C297.14 251.049 296.86 251.049 296.794 250.852L296.407 249.69C296.234 249.172 295.828 248.766 295.31 248.593L294.148 248.206C293.951 248.14 293.951 247.86 294.148 247.794L295.31 247.407C295.828 247.234 296.234 246.828 296.407 246.31L296.794 245.148Z" fill="#C4FF00"/>
<path d="M303.863 244.099C303.907 243.967 304.093 243.967 304.137 244.099L304.395 244.873C304.51 245.219 304.781 245.49 305.127 245.605L305.901 245.863C306.033 245.907 306.033 246.093 305.901 246.137L305.127 246.395C304.781 246.51 304.51 246.781 304.395 247.127L304.137 247.901C304.093 248.033 303.907 248.033 303.863 247.901L303.605 247.127C303.49 246.781 303.219 246.51 302.873 246.395L302.099 246.137C301.967 246.093 301.967 245.907 302.099 245.863L302.873 245.605C303.219 245.49 303.49 245.219 303.605 244.873L303.863 244.099Z" fill="#C4FF00"/>
<path d="M57.6572 306.247C57.767 305.918 58.233 305.918 58.3428 306.247L58.9883 308.183C59.276 309.047 59.9533 309.724 60.8165 310.012L62.7529 310.657C63.0824 310.767 63.0824 311.233 62.7529 311.343L60.8165 311.988C59.9533 312.276 59.276 312.953 58.9883 313.816L58.3428 315.753C58.233 316.082 57.767 316.082 57.6572 315.753L57.0117 313.816C56.724 312.953 56.0467 312.276 55.1835 311.988L53.2471 311.343C52.9176 311.233 52.9176 310.767 53.2471 310.657L55.1835 310.012C56.0467 309.724 56.724 309.047 57.0117 308.184L57.6572 306.247Z" fill="#C4FF00"/>
<path d="M53.7943 301.148C53.8602 300.951 54.1398 300.951 54.2057 301.148L54.593 302.31C54.7656 302.828 55.172 303.234 55.6899 303.407L56.8518 303.794C57.0494 303.86 57.0494 304.14 56.8518 304.206L55.6899 304.593C55.172 304.766 54.7656 305.172 54.593 305.69L54.2057 306.852C54.1398 307.049 53.8602 307.049 53.7943 306.852L53.407 305.69C53.2344 305.172 52.828 304.766 52.3101 304.593L51.1482 304.206C50.9506 304.14 50.9506 303.86 51.1482 303.794L52.3101 303.407C52.828 303.234 53.2344 302.828 53.407 302.31L53.7943 301.148Z" fill="#C4FF00"/>
<path d="M60.8629 300.099C60.9068 299.967 61.0932 299.967 61.1371 300.099L61.3953 300.873C61.5104 301.219 61.7813 301.49 62.1266 301.605L62.9012 301.863C63.0329 301.907 63.0329 302.093 62.9012 302.137L62.1266 302.395C61.7813 302.51 61.5104 302.781 61.3953 303.127L61.1371 303.901C61.0932 304.033 60.9068 304.033 60.8629 303.901L60.6047 303.127C60.4896 302.781 60.2187 302.51 59.8734 302.395L59.0988 302.137C58.9671 302.093 58.9671 301.907 59.0988 301.863L59.8734 301.605C60.2187 301.49 60.4896 301.219 60.6047 300.873L60.8629 300.099Z" fill="#C4FF00"/>
<path d="M44.6572 116.247C44.767 115.918 45.233 115.918 45.3428 116.247L45.9883 118.183C46.276 119.047 46.9533 119.724 47.8165 120.012L49.7529 120.657C50.0824 120.767 50.0824 121.233 49.7529 121.343L47.8165 121.988C46.9533 122.276 46.276 122.953 45.9883 123.816L45.3428 125.753C45.233 126.082 44.767 126.082 44.6572 125.753L44.0117 123.816C43.724 122.953 43.0467 122.276 42.1835 121.988L40.2471 121.343C39.9176 121.233 39.9176 120.767 40.2471 120.657L42.1835 120.012C43.0467 119.724 43.724 119.047 44.0117 118.184L44.6572 116.247Z" fill="#C4FF00"/>
<path d="M40.7943 111.148C40.8602 110.951 41.1398 110.951 41.2057 111.148L41.593 112.31C41.7656 112.828 42.172 113.234 42.6899 113.407L43.8518 113.794C44.0494 113.86 44.0494 114.14 43.8518 114.206L42.6899 114.593C42.172 114.766 41.7656 115.172 41.593 115.69L41.2057 116.852C41.1398 117.049 40.8602 117.049 40.7943 116.852L40.407 115.69C40.2344 115.172 39.828 114.766 39.3101 114.593L38.1482 114.206C37.9506 114.14 37.9506 113.86 38.1482 113.794L39.3101 113.407C39.828 113.234 40.2344 112.828 40.407 112.31L40.7943 111.148Z" fill="#C4FF00"/>
<path d="M47.8629 110.099C47.9068 109.967 48.0932 109.967 48.1371 110.099L48.3953 110.873C48.5104 111.219 48.7813 111.49 49.1266 111.605L49.9012 111.863C50.0329 111.907 50.0329 112.093 49.9012 112.137L49.1266 112.395C48.7813 112.51 48.5104 112.781 48.3953 113.127L48.1371 113.901C48.0932 114.033 47.9068 114.033 47.8629 113.901L47.6047 113.127C47.4896 112.781 47.2187 112.51 46.8734 112.395L46.0988 112.137C45.9671 112.093 45.9671 111.907 46.0988 111.863L46.8734 111.605C47.2187 111.49 47.4896 111.219 47.6047 110.873L47.8629 110.099Z" fill="#C4FF00"/>
<path d="M7.65723 139.247C7.76704 138.918 8.233 138.918 8.34281 139.247L8.98828 141.183C9.276 142.047 9.95332 142.724 10.8165 143.012L12.7529 143.657C13.0824 143.767 13.0824 144.233 12.7529 144.343L10.8165 144.988C9.95332 145.276 9.27599 145.953 8.98828 146.816L8.34281 148.753C8.233 149.082 7.76704 149.082 7.65723 148.753L7.01173 146.816C6.72401 145.953 6.04669 145.276 5.18353 144.988L3.24707 144.343C2.91764 144.233 2.91764 143.767 3.24707 143.657L5.18353 143.012C6.04669 142.724 6.72401 142.047 7.01173 141.184L7.65723 139.247Z" fill="#C4FF00"/>
<path d="M3.79434 134.148C3.86023 133.951 4.1398 133.951 4.20569 134.148L4.59297 135.31C4.7656 135.828 5.172 136.234 5.6899 136.407L6.85177 136.794C7.04942 136.86 7.04942 137.14 6.85177 137.206L5.6899 137.593C5.172 137.766 4.7656 138.172 4.59297 138.69L4.20569 139.852C4.13981 140.049 3.86023 140.049 3.79434 139.852L3.40704 138.69C3.23441 138.172 2.82801 137.766 2.31012 137.593L1.14824 137.206C0.950586 137.14 0.950586 136.86 1.14824 136.794L2.31012 136.407C2.82802 136.234 3.23441 135.828 3.40704 135.31L3.79434 134.148Z" fill="#C4FF00"/>
<path d="M10.8629 133.099C10.9068 132.967 11.0932 132.967 11.1371 133.099L11.3953 133.873C11.5104 134.219 11.7813 134.49 12.1266 134.605L12.9012 134.863C13.0329 134.907 13.0329 135.093 12.9012 135.137L12.1266 135.395C11.7813 135.51 11.5104 135.781 11.3953 136.127L11.1371 136.901C11.0932 137.033 10.9068 137.033 10.8629 136.901L10.6047 136.127C10.4896 135.781 10.2187 135.51 9.87342 135.395L9.09883 135.137C8.96706 135.093 8.96706 134.907 9.09883 134.863L9.87342 134.605C10.2187 134.49 10.4896 134.219 10.6047 133.873L10.8629 133.099Z" fill="#C4FF00"/>
<path d="M245.657 6.24707C245.767 5.91764 246.233 5.91765 246.343 6.24707L246.988 8.1835C247.276 9.04666 247.953 9.72399 248.816 10.0117L250.753 10.6572C251.082 10.767 251.082 11.233 250.753 11.3428L248.816 11.9883C247.953 12.276 247.276 12.9533 246.988 13.8165L246.343 15.7529C246.233 16.0823 245.767 16.0823 245.657 15.7529L245.012 13.8165C244.724 12.9533 244.047 12.276 243.184 11.9883L241.247 11.3428C240.918 11.233 240.918 10.767 241.247 10.6572L243.184 10.0117C244.047 9.72399 244.724 9.04667 245.012 8.18352L245.657 6.24707Z" fill="#C4FF00"/>
<path d="M241.794 1.14824C241.86 0.950586 242.14 0.950587 242.206 1.14824L242.593 2.3101C242.766 2.828 243.172 3.2344 243.69 3.40703L244.852 3.79432C245.049 3.86021 245.049 4.13978 244.852 4.20567L243.69 4.59296C243.172 4.76559 242.766 5.17199 242.593 5.68989L242.206 6.85176C242.14 7.04941 241.86 7.04942 241.794 6.85176L241.407 5.68988C241.234 5.17198 240.828 4.76559 240.31 4.59296L239.148 4.20567C238.951 4.13978 238.951 3.86021 239.148 3.79432L240.31 3.40703C240.828 3.2344 241.234 2.82801 241.407 2.31011L241.794 1.14824Z" fill="#C4FF00"/>
<path d="M248.863 0.0988265C248.907 -0.032943 249.093 -0.0329419 249.137 0.098828L249.395 0.873401C249.51 1.21867 249.781 1.4896 250.127 1.60469L250.901 1.86288C251.033 1.9068 251.033 2.09319 250.901 2.13711L250.127 2.39531C249.781 2.51039 249.51 2.78133 249.395 3.12659L249.137 3.90117C249.093 4.03294 248.907 4.03294 248.863 3.90117L248.605 3.12659C248.49 2.78132 248.219 2.5104 247.873 2.39531L247.099 2.13711C246.967 2.09319 246.967 1.9068 247.099 1.86288L247.873 1.60469C248.219 1.4896 248.49 1.21867 248.605 0.873408L248.863 0.0988265Z" fill="#C4FF00"/>
<path d="M107.657 143.247C107.767 142.918 108.233 142.918 108.343 143.247L108.988 145.183C109.276 146.047 109.953 146.724 110.816 147.012L112.753 147.657C113.082 147.767 113.082 148.233 112.753 148.343L110.816 148.988C109.953 149.276 109.276 149.953 108.988 150.816L108.343 152.753C108.233 153.082 107.767 153.082 107.657 152.753L107.012 150.816C106.724 149.953 106.047 149.276 105.184 148.988L103.247 148.343C102.918 148.233 102.918 147.767 103.247 147.657L105.184 147.012C106.047 146.724 106.724 146.047 107.012 145.184L107.657 143.247Z" fill="#C4FF00"/>
<path d="M103.794 138.148C103.86 137.951 104.14 137.951 104.206 138.148L104.593 139.31C104.766 139.828 105.172 140.234 105.69 140.407L106.852 140.794C107.049 140.86 107.049 141.14 106.852 141.206L105.69 141.593C105.172 141.766 104.766 142.172 104.593 142.69L104.206 143.852C104.14 144.049 103.86 144.049 103.794 143.852L103.407 142.69C103.234 142.172 102.828 141.766 102.31 141.593L101.148 141.206C100.951 141.14 100.951 140.86 101.148 140.794L102.31 140.407C102.828 140.234 103.234 139.828 103.407 139.31L103.794 138.148Z" fill="#C4FF00"/>
<path d="M110.863 137.099C110.907 136.967 111.093 136.967 111.137 137.099L111.395 137.873C111.51 138.219 111.781 138.49 112.127 138.605L112.901 138.863C113.033 138.907 113.033 139.093 112.901 139.137L112.127 139.395C111.781 139.51 111.51 139.781 111.395 140.127L111.137 140.901C111.093 141.033 110.907 141.033 110.863 140.901L110.605 140.127C110.49 139.781 110.219 139.51 109.873 139.395L109.099 139.137C108.967 139.093 108.967 138.907 109.099 138.863L109.873 138.605C110.219 138.49 110.49 138.219 110.605 137.873L110.863 137.099Z" fill="#C4FF00"/>
<path d="M39.6572 250.247C39.767 249.918 40.233 249.918 40.3428 250.247L40.9883 252.183C41.276 253.047 41.9533 253.724 42.8165 254.012L44.7529 254.657C45.0824 254.767 45.0824 255.233 44.7529 255.343L42.8165 255.988C41.9533 256.276 41.276 256.953 40.9883 257.816L40.3428 259.753C40.233 260.082 39.767 260.082 39.6572 259.753L39.0117 257.816C38.724 256.953 38.0467 256.276 37.1835 255.988L35.2471 255.343C34.9176 255.233 34.9176 254.767 35.2471 254.657L37.1835 254.012C38.0467 253.724 38.724 253.047 39.0117 252.184L39.6572 250.247Z" fill="#C4FF00"/>
<path d="M35.7943 245.148C35.8602 244.951 36.1398 244.951 36.2057 245.148L36.593 246.31C36.7656 246.828 37.172 247.234 37.6899 247.407L38.8518 247.794C39.0494 247.86 39.0494 248.14 38.8518 248.206L37.6899 248.593C37.172 248.766 36.7656 249.172 36.593 249.69L36.2057 250.852C36.1398 251.049 35.8602 251.049 35.7943 250.852L35.407 249.69C35.2344 249.172 34.828 248.766 34.3101 248.593L33.1482 248.206C32.9506 248.14 32.9506 247.86 33.1482 247.794L34.3101 247.407C34.828 247.234 35.2344 246.828 35.407 246.31L35.7943 245.148Z" fill="#C4FF00"/>
<path d="M42.8629 244.099C42.9068 243.967 43.0932 243.967 43.1371 244.099L43.3953 244.873C43.5104 245.219 43.7813 245.49 44.1266 245.605L44.9012 245.863C45.0329 245.907 45.0329 246.093 44.9012 246.137L44.1266 246.395C43.7813 246.51 43.5104 246.781 43.3953 247.127L43.1371 247.901C43.0932 248.033 42.9068 248.033 42.8629 247.901L42.6047 247.127C42.4896 246.781 42.2187 246.51 41.8734 246.395L41.0988 246.137C40.9671 246.093 40.9671 245.907 41.0988 245.863L41.8734 245.605C42.2187 245.49 42.4896 245.219 42.6047 244.873L42.8629 244.099Z" fill="#C4FF00"/>
<path d="M162.657 19.2471C162.767 18.9176 163.233 18.9176 163.343 19.2471L163.988 21.1835C164.276 22.0467 164.953 22.724 165.816 23.0117L167.753 23.6572C168.082 23.767 168.082 24.233 167.753 24.3428L165.816 24.9883C164.953 25.276 164.276 25.9533 163.988 26.8165L163.343 28.7529C163.233 29.0823 162.767 29.0823 162.657 28.7529L162.012 26.8165C161.724 25.9533 161.047 25.276 160.184 24.9883L158.247 24.3428C157.918 24.233 157.918 23.767 158.247 23.6572L160.184 23.0117C161.047 22.724 161.724 22.0467 162.012 21.1835L162.657 19.2471Z" fill="#C4FF00"/>
<path d="M158.794 14.1482C158.86 13.9506 159.14 13.9506 159.206 14.1482L159.593 15.3101C159.766 15.828 160.172 16.2344 160.69 16.407L161.852 16.7943C162.049 16.8602 162.049 17.1398 161.852 17.2057L160.69 17.593C160.172 17.7656 159.766 18.172 159.593 18.6899L159.206 19.8518C159.14 20.0494 158.86 20.0494 158.794 19.8518L158.407 18.6899C158.234 18.172 157.828 17.7656 157.31 17.593L156.148 17.2057C155.951 17.1398 155.951 16.8602 156.148 16.7943L157.31 16.407C157.828 16.2344 158.234 15.828 158.407 15.3101L158.794 14.1482Z" fill="#C4FF00"/>
<path d="M165.863 13.0988C165.907 12.9671 166.093 12.9671 166.137 13.0988L166.395 13.8734C166.51 14.2187 166.781 14.4896 167.127 14.6047L167.901 14.8629C168.033 14.9068 168.033 15.0932 167.901 15.1371L167.127 15.3953C166.781 15.5104 166.51 15.7813 166.395 16.1266L166.137 16.9012C166.093 17.0329 165.907 17.0329 165.863 16.9012L165.605 16.1266C165.49 15.7813 165.219 15.5104 164.873 15.3953L164.099 15.1371C163.967 15.0932 163.967 14.9068 164.099 14.8629L164.873 14.6047C165.219 14.4896 165.49 14.2187 165.605 13.8734L165.863 13.0988Z" fill="#C4FF00"/>
<path d="M294.657 89.2471C294.767 88.9176 295.233 88.9176 295.343 89.2471L295.988 91.1835C296.276 92.0467 296.953 92.724 297.816 93.0117L299.753 93.6572C300.082 93.767 300.082 94.233 299.753 94.3428L297.816 94.9883C296.953 95.276 296.276 95.9533 295.988 96.8165L295.343 98.7529C295.233 99.0823 294.767 99.0823 294.657 98.7529L294.012 96.8165C293.724 95.9533 293.047 95.276 292.184 94.9883L290.247 94.3428C289.918 94.233 289.918 93.767 290.247 93.6572L292.184 93.0117C293.047 92.724 293.724 92.0467 294.012 91.1835L294.657 89.2471Z" fill="#C4FF00"/>
<path d="M290.794 84.1482C290.86 83.9506 291.14 83.9506 291.206 84.1482L291.593 85.3101C291.766 85.828 292.172 86.2344 292.69 86.407L293.852 86.7943C294.049 86.8602 294.049 87.1398 293.852 87.2057L292.69 87.593C292.172 87.7656 291.766 88.172 291.593 88.6899L291.206 89.8518C291.14 90.0494 290.86 90.0494 290.794 89.8518L290.407 88.6899C290.234 88.172 289.828 87.7656 289.31 87.593L288.148 87.2057C287.951 87.1398 287.951 86.8602 288.148 86.7943L289.31 86.407C289.828 86.2344 290.234 85.828 290.407 85.3101L290.794 84.1482Z" fill="#C4FF00"/>
<path d="M297.863 83.0988C297.907 82.9671 298.093 82.9671 298.137 83.0988L298.395 83.8734C298.51 84.2187 298.781 84.4896 299.127 84.6047L299.901 84.8629C300.033 84.9068 300.033 85.0932 299.901 85.1371L299.127 85.3953C298.781 85.5104 298.51 85.7813 298.395 86.1266L298.137 86.9012C298.093 87.0329 297.907 87.0329 297.863 86.9012L297.605 86.1266C297.49 85.7813 297.219 85.5104 296.873 85.3953L296.099 85.1371C295.967 85.0932 295.967 84.9068 296.099 84.8629L296.873 84.6047C297.219 84.4896 297.49 84.2187 297.605 83.8734L297.863 83.0988Z" fill="#C4FF00"/>
<path d="M242.657 258.247C242.767 257.918 243.233 257.918 243.343 258.247L243.988 260.183C244.276 261.047 244.953 261.724 245.816 262.012L247.753 262.657C248.082 262.767 248.082 263.233 247.753 263.343L245.816 263.988C244.953 264.276 244.276 264.953 243.988 265.816L243.343 267.753C243.233 268.082 242.767 268.082 242.657 267.753L242.012 265.816C241.724 264.953 241.047 264.276 240.184 263.988L238.247 263.343C237.918 263.233 237.918 262.767 238.247 262.657L240.184 262.012C241.047 261.724 241.724 261.047 242.012 260.184L242.657 258.247Z" fill="#C4FF00"/>
<path d="M238.794 253.148C238.86 252.951 239.14 252.951 239.206 253.148L239.593 254.31C239.766 254.828 240.172 255.234 240.69 255.407L241.852 255.794C242.049 255.86 242.049 256.14 241.852 256.206L240.69 256.593C240.172 256.766 239.766 257.172 239.593 257.69L239.206 258.852C239.14 259.049 238.86 259.049 238.794 258.852L238.407 257.69C238.234 257.172 237.828 256.766 237.31 256.593L236.148 256.206C235.951 256.14 235.951 255.86 236.148 255.794L237.31 255.407C237.828 255.234 238.234 254.828 238.407 254.31L238.794 253.148Z" fill="#C4FF00"/>
<path d="M245.863 252.099C245.907 251.967 246.093 251.967 246.137 252.099L246.395 252.873C246.51 253.219 246.781 253.49 247.127 253.605L247.901 253.863C248.033 253.907 248.033 254.093 247.901 254.137L247.127 254.395C246.781 254.51 246.51 254.781 246.395 255.127L246.137 255.901C246.093 256.033 245.907 256.033 245.863 255.901L245.605 255.127C245.49 254.781 245.219 254.51 244.873 254.395L244.099 254.137C243.967 254.093 243.967 253.907 244.099 253.863L244.873 253.605C245.219 253.49 245.49 253.219 245.605 252.873L245.863 252.099Z" fill="#C4FF00"/>
</svg>
