<svg width="50" height="50" viewBox="0 0 50 50" fill="none" xmlns="http://www.w3.org/2000/svg">
<circle cx="25" cy="25" r="25" fill="#61FFC8"/>
<path d="M25 35C30.5228 35 35 30.5228 35 25C35 19.4772 30.5228 15 25 15C19.4772 15 15 19.4772 15 25C15 30.5228 19.4772 35 25 35Z" fill="#FFFF00"/>
<path d="M25 5C25.6904 5 26.25 5.55964 26.25 6.25V11.25C26.25 11.9404 25.6904 12.5 25 12.5C24.3096 12.5 23.75 11.9404 23.75 11.25V6.25C23.75 5.55964 24.3096 5 25 5Z" fill="#FFFF00"/>
<path d="M25 37.5C25.6904 37.5 26.25 38.0596 26.25 38.75V43.75C26.25 44.4404 25.6904 45 25 45C24.3096 45 23.75 44.4404 23.75 43.75V38.75C23.75 38.0596 24.3096 37.5 25 37.5Z" fill="#FFFF00"/>
<path d="M45 25C45 25.6904 44.4404 26.25 43.75 26.25H38.75C38.0596 26.25 37.5 25.6904 37.5 25C37.5 24.3096 38.0596 23.75 38.75 23.75H43.75C44.4404 23.75 45 24.3096 45 25Z" fill="#FFFF00"/>
<path d="M12.5 25C12.5 25.6904 11.9404 26.25 11.25 26.25H6.25C5.55964 26.25 5 25.6904 5 25C5 24.3096 5.55964 23.75 6.25 23.75H11.25C11.9404 23.75 12.5 24.3096 12.5 25Z" fill="#FFFF00"/>
<path d="M39.1421 10.8579C39.6303 11.3461 39.6303 12.1376 39.1421 12.6257L35.6066 16.1612C35.1184 16.6494 34.327 16.6494 33.8388 16.1612C33.3507 15.6731 33.3507 14.8816 33.8388 14.3935L37.3744 10.8579C37.8625 10.3698 38.654 10.3698 39.1421 10.8579Z" fill="#FFFF00"/>
<path d="M16.1612 33.8389C16.6493 34.3271 16.6493 35.1185 16.1612 35.6067L12.6256 39.1422C12.1375 39.6304 11.346 39.6304 10.8579 39.1422C10.3697 38.6541 10.3697 37.8626 10.8579 37.3744L14.3934 33.8389C14.8815 33.3508 15.673 33.3508 16.1612 33.8389Z" fill="#FFFF00"/>
<path d="M39.1421 39.1422C38.654 39.6304 37.8625 39.6304 37.3744 39.1422L33.8388 35.6067C33.3507 35.1186 33.3507 34.3271 33.8388 33.8389C34.327 33.3508 35.1184 33.3508 35.6066 33.8389L39.1421 37.3745C39.6303 37.8626 39.6303 38.6541 39.1421 39.1422Z" fill="#FFFF00"/>
<path d="M16.1612 16.1613C15.673 16.6494 14.8816 16.6494 14.3934 16.1613L10.8579 12.6257C10.3697 12.1376 10.3697 11.3461 10.8579 10.858C11.346 10.3698 12.1375 10.3698 12.6256 10.858L16.1612 14.3935C16.6493 14.8817 16.6493 15.6731 16.1612 16.1613Z" fill="#FFFF00"/>
</svg>
