<svg width="60" height="60" viewBox="0 0 60 60" fill="none" xmlns="http://www.w3.org/2000/svg">
<rect width="60" height="60" fill="#152E0F" fill-opacity="0.92"/>
<path d="M55 27.0491C55 14.0473 44.8956 5 30.3686 5C15.3194 5 5 15.1558 5 29.985C5 45.2936 15.043 55 30.8907 55C34.7604 55 38.4767 54.4608 41.2408 53.5321V49.7573C39.3059 50.6261 35.1597 51.1953 30.9521 51.1953C17.8071 51.1953 9.33047 42.9569 9.33047 30.1648C9.33047 17.7022 17.9607 8.77472 29.9693 8.77472C42.2543 8.77472 50.6695 16.1744 50.6695 26.9892C50.6695 34.3589 48.1818 39.1222 44.312 39.1222C42.1007 39.1222 40.8415 37.8939 40.8415 35.7969V18.2115H36.2039V21.8664H35.7125C34.5147 19.26 31.7506 17.6423 28.5258 17.6423C22.2297 17.6423 17.8378 22.7352 17.8378 30.015C17.8378 37.6243 22.1376 42.7472 28.5258 42.7472C32.1192 42.7472 34.8833 41.0395 36.2039 37.9838H36.6953C37.0639 40.9197 39.8587 43.0168 43.4521 43.0168C50.516 43.0168 55 36.8155 55 27.0491ZM22.7518 30.1348C22.7518 24.8922 25.1781 21.7765 29.2936 21.7765C33.4705 21.7765 36.1425 25.012 36.1425 30.1348C36.1425 35.2576 33.4398 38.5231 29.2322 38.5231C25.2088 38.5231 22.7518 35.3475 22.7518 30.1348Z" fill="white"/>
</svg>
