<svg width="59" height="58" viewBox="0 0 59 58" fill="none" xmlns="http://www.w3.org/2000/svg">
<circle cx="29.9199" cy="29" r="29" fill="#D9D9D9"/>
<path d="M30 9C18.95 9 10 17.95 10 29C10 37.85 15.725 45.325 23.675 47.975C24.675 48.15 25.05 47.55 25.05 47.025C25.05 46.55 25.025 44.975 25.025 43.3C20 44.225 18.7 42.075 18.3 40.95C18.075 40.375 17.1 38.6 16.25 38.125C15.55 37.75 14.55 36.825 16.225 36.8C17.8 36.775 18.925 38.25 19.3 38.85C21.1 41.875 23.975 41.025 25.125 40.5C25.3 39.2 25.825 38.325 26.4 37.825C21.95 37.325 17.3 35.6 17.3 27.95C17.3 25.775 18.075 23.975 19.35 22.575C19.15 22.075 18.45 20.025 19.55 17.275C19.55 17.275 21.225 16.75 25.05 19.325C26.65 18.875 28.35 18.65 30.05 18.65C31.75 18.65 33.45 18.875 35.05 19.325C38.875 16.725 40.55 17.275 40.55 17.275C41.65 20.025 40.95 22.075 40.75 22.575C42.025 23.975 42.8 25.75 42.8 27.95C42.8 35.625 38.125 37.325 33.675 37.825C34.4 38.45 35.025 39.65 35.025 41.525C35.025 44.2 35 46.35 35 47.025C35 47.55 35.375 48.175 36.375 47.975C40.3454 46.6346 43.7954 44.0829 46.2396 40.6791C48.6838 37.2752 49.9989 33.1905 50 29C50 17.95 41.05 9 30 9Z" fill="#152E0F" fill-opacity="0.92"/>
</svg>
