<svg width="58" height="58" viewBox="0 0 58 58" fill="none" xmlns="http://www.w3.org/2000/svg">
<circle cx="29" cy="29" r="29" fill="#D9D9D9"/>
<path d="M29.0019 9C23.5702 9 22.8885 9.02375 20.7551 9.12083C18.6259 9.21834 17.1726 9.55542 15.9009 10.05C14.5855 10.5608 13.4696 11.2442 12.358 12.3563C11.2454 13.468 10.5621 14.5838 10.0496 15.8988C9.55376 17.1709 9.21625 18.6247 9.12042 20.753C9.025 22.8864 9 23.5685 9 29.0002C9 34.4319 9.02417 35.1115 9.12083 37.2449C9.21875 39.3741 9.55584 40.8274 10.05 42.0991C10.5613 43.4145 11.2446 44.5304 12.3567 45.642C13.468 46.7546 14.5838 47.4396 15.8984 47.9504C17.1709 48.445 18.6247 48.7821 20.7535 48.8796C22.8868 48.9767 23.5681 49.0004 28.9994 49.0004C34.4315 49.0004 35.1111 48.9767 37.2445 48.8796C39.3737 48.7821 40.8287 48.445 42.1012 47.9504C43.4162 47.4396 44.5304 46.7546 45.6416 45.642C46.7541 44.5304 47.4375 43.4145 47.95 42.0995C48.4417 40.8274 48.7792 39.3736 48.8792 37.2453C48.975 35.1119 49 34.4319 49 29.0002C49 23.5685 48.975 22.8868 48.8792 20.7535C48.7792 18.6243 48.4417 17.1709 47.95 15.8992C47.4375 14.5838 46.7541 13.468 45.6416 12.3563C44.5291 11.2438 43.4166 10.5604 42.0999 10.05C40.8249 9.55542 39.3707 9.21834 37.2415 9.12083C35.1082 9.02375 34.429 9 28.9956 9H29.0019ZM27.2077 12.6042C27.7402 12.6034 28.3344 12.6042 29.0019 12.6042C34.3419 12.6042 34.9749 12.6234 37.0836 12.7192C39.0336 12.8084 40.092 13.1342 40.797 13.408C41.7303 13.7705 42.3958 14.2038 43.0954 14.9038C43.7954 15.6038 44.2287 16.2705 44.592 17.2038C44.8658 17.908 45.192 18.9664 45.2808 20.9164C45.3766 23.0247 45.3975 23.6581 45.3975 28.9956C45.3975 34.3332 45.3766 34.9665 45.2808 37.0749C45.1916 39.0249 44.8658 40.0832 44.592 40.7874C44.2295 41.7208 43.7954 42.3853 43.0954 43.0849C42.3953 43.7849 41.7308 44.2183 40.797 44.5808C40.0928 44.8558 39.0336 45.1808 37.0836 45.27C34.9753 45.3658 34.3419 45.3866 29.0019 45.3866C23.6614 45.3866 23.0285 45.3658 20.9201 45.27C18.9701 45.18 17.9118 44.8541 17.2063 44.5804C16.273 44.2179 15.6063 43.7845 14.9063 43.0845C14.2063 42.3845 13.773 41.7195 13.4096 40.7857C13.1359 40.0816 12.8096 39.0232 12.7209 37.0732C12.625 34.9649 12.6059 34.3315 12.6059 28.9906C12.6059 23.6497 12.625 23.0197 12.7209 20.9114C12.81 18.9614 13.1359 17.903 13.4096 17.198C13.7721 16.2647 14.2063 15.598 14.9063 14.898C15.6063 14.198 16.273 13.7646 17.2063 13.4013C17.9113 13.1263 18.9701 12.8013 20.9201 12.7117C22.7651 12.6284 23.4802 12.6034 27.2077 12.5992V12.6042ZM39.6778 15.9251C38.3528 15.9251 37.2778 16.9988 37.2778 18.3243C37.2778 19.6493 38.3528 20.7243 39.6778 20.7243C41.0028 20.7243 42.0778 19.6493 42.0778 18.3243C42.0778 16.9992 41.0028 15.9242 39.6778 15.9242V15.9251ZM29.0019 18.7293C23.3297 18.7293 18.7309 23.3281 18.7309 29.0002C18.7309 34.6723 23.3297 39.2691 29.0019 39.2691C34.674 39.2691 39.2711 34.6723 39.2711 29.0002C39.2711 23.3281 34.6736 18.7293 29.0015 18.7293H29.0019ZM29.0019 22.3335C32.6836 22.3335 35.6686 25.3181 35.6686 29.0002C35.6686 32.6819 32.6836 35.6669 29.0019 35.6669C25.3198 35.6669 22.3351 32.6819 22.3351 29.0002C22.3351 25.3181 25.3198 22.3335 29.0019 22.3335Z" fill="#152E0F" fill-opacity="0.92"/>
</svg>
