<svg width="60" height="60" viewBox="0 0 60 60" fill="none" xmlns="http://www.w3.org/2000/svg">
<rect width="60" height="60" fill="#152E0F" fill-opacity="0.92"/>
<path d="M5 14.5C5 14.5 5 8.25 11.25 8.25H48.75C48.75 8.25 55 8.25 55 14.5V33.25C55 33.25 55 39.5 48.75 39.5H36.25C36.25 41.5833 36.5104 43.1458 37.0312 44.1875H39.375C40.2379 44.1875 40.9375 44.8871 40.9375 45.75C40.9375 46.6129 40.2379 47.3125 39.375 47.3125H20.625C19.7621 47.3125 19.0625 46.6129 19.0625 45.75C19.0625 44.8871 19.7621 44.1875 20.625 44.1875H22.9688C23.4896 43.1458 23.75 41.5833 23.75 39.5H11.25C11.25 39.5 5 39.5 5 33.25V14.5ZM9.37016 11.8267C9.04042 12.0465 8.7816 12.362 8.57633 12.7725C8.36495 13.1953 8.24368 13.6559 8.18014 14.0372C8.1496 14.2204 8.13554 14.3663 8.12927 14.4541C8.12666 14.4905 8.12549 14.5157 8.125 14.5282V33.25C8.125 34.2657 8.36994 34.8197 8.57672 35.1298C8.79654 35.4596 9.11201 35.7184 9.52254 35.9237C9.94531 36.135 10.4059 36.2563 10.7872 36.3199C10.9704 36.3504 11.1163 36.3645 11.2041 36.3707C11.2405 36.3733 11.2658 36.3745 11.2782 36.375H48.75C49.7657 36.375 50.3197 36.1301 50.6298 35.9233C50.9596 35.7035 51.2184 35.388 51.4237 34.9775C51.635 34.5547 51.7563 34.0941 51.8199 33.7128C51.8504 33.5296 51.8645 33.3837 51.8707 33.2959C51.8733 33.2595 51.8745 33.2342 51.875 33.2218V14.5C51.875 13.4843 51.6301 12.9303 51.4233 12.6202C51.2035 12.2904 50.888 12.0316 50.4775 11.8263C50.0547 11.615 49.5941 11.4937 49.2128 11.4301C49.0296 11.3996 48.8837 11.3855 48.7959 11.3793C48.7595 11.3767 48.7343 11.3755 48.7218 11.375H11.25C10.2343 11.375 9.68033 11.6199 9.37016 11.8267Z" fill="white"/>
</svg>
