<svg width="60" height="60" viewBox="0 0 60 60" fill="none" xmlns="http://www.w3.org/2000/svg">
<rect width="60" height="60" fill="#152E0F" fill-opacity="0.92"/>
<path d="M52.454 2.37591C52.9792 2.82583 53.1461 3.56748 52.8644 4.19905C48.0816 14.9209 38.0429 29.7322 30.6942 37.4523C28.7095 39.5373 26.5814 40.8139 24.948 41.5705C24.3054 41.8681 23.7361 42.0868 23.2773 42.2436C23.2218 42.9534 23.0896 43.9246 22.776 44.955C22.1492 47.0144 20.6948 49.5775 17.4414 50.3909C14.0909 51.2285 10.3578 51.2296 7.82125 50.8069C7.17925 50.6999 6.58042 50.5604 6.06384 50.3856C5.58018 50.2221 5.03321 49.9837 4.60784 49.6115C4.3866 49.4179 4.12521 49.1247 3.97287 48.7127C3.80669 48.2633 3.81064 47.7769 3.98427 47.3283C4.28117 46.5613 4.97303 46.1416 5.42618 45.915C6.65445 45.3008 7.37805 44.5007 8.13517 43.3359C8.4295 42.8832 8.71017 42.4056 9.03122 41.8593C9.14666 41.6629 9.26731 41.4576 9.3957 41.2413C9.86902 40.4442 10.4155 39.5551 11.1035 38.5918C12.7529 36.2827 14.8558 35.7016 16.5587 35.7912C16.9531 35.812 17.3191 35.8677 17.6469 35.9395C17.8413 35.4024 18.0897 34.7538 18.3907 34.0405C19.2067 32.1069 20.4467 29.6072 22.1009 27.5759C28.8983 19.2287 41.4103 8.18114 50.5895 2.25013C51.1703 1.87481 51.9288 1.92598 52.454 2.37591ZM17.7037 39.2259C17.6443 39.2 17.5701 39.1697 17.4832 39.1383C17.2027 39.0368 16.8201 38.9343 16.3944 38.9119C15.6234 38.8713 14.6012 39.0715 13.6464 40.4082C13.0324 41.2678 12.5372 42.0715 12.0827 42.8368C11.9736 43.0207 11.8646 43.2061 11.7557 43.3915C11.4233 43.9571 11.0914 44.522 10.7553 45.0391C10.111 46.0303 9.38903 46.9475 8.38256 47.7322C10.5343 48.0829 13.8052 48.0787 16.6834 47.3592C18.43 46.9225 19.3194 45.5794 19.7864 44.0451C20.0173 43.2864 20.1198 42.5459 20.1628 41.9876C20.1707 41.8852 20.1765 41.7899 20.1807 41.7029L17.7037 39.2259ZM22.2047 39.3075C22.5793 39.1817 23.0694 38.9967 23.6346 38.7349C24.9975 38.1036 26.7757 37.0364 28.4307 35.2977C34.3692 29.059 42.2192 17.893 47.3438 8.32439C39.2468 14.3458 29.951 22.8849 24.5241 29.5491C23.1424 31.2458 22.0387 33.4336 21.2699 35.2555C20.89 36.1557 20.6011 36.9443 20.4079 37.5055C20.4075 37.5068 20.407 37.5081 20.4066 37.5094L22.2047 39.3075ZM6.66337 48.8044C6.66274 48.8042 6.66867 48.799 6.68307 48.7893C6.6712 48.7997 6.664 48.8045 6.66337 48.8044ZM17.8565 39.2981L17.8586 39.2991L17.8625 39.3013C17.8636 39.3019 17.8615 39.3008 17.8565 39.2981Z" fill="white"/>
</svg>
