<svg width="60" height="60" viewBox="0 0 60 60" fill="none" xmlns="http://www.w3.org/2000/svg">
<rect width="60" height="60" fill="#152E0F" fill-opacity="0.92"/>
<path d="M9.6875 8.125C8.82456 8.125 8.125 8.82456 8.125 9.6875V19.0625C8.125 19.9254 7.42544 20.625 6.5625 20.625C5.69956 20.625 5 19.9254 5 19.0625V9.6875C5 7.09867 7.09867 5 9.6875 5H19.0625C19.9254 5 20.625 5.69956 20.625 6.5625C20.625 7.42544 19.9254 8.125 19.0625 8.125H9.6875ZM39.375 6.5625C39.375 5.69956 40.0746 5 40.9375 5H50.3125C52.9013 5 55 7.09867 55 9.6875V19.0625C55 19.9254 54.3004 20.625 53.4375 20.625C52.5746 20.625 51.875 19.9254 51.875 19.0625V9.6875C51.875 8.82456 51.1754 8.125 50.3125 8.125H40.9375C40.0746 8.125 39.375 7.42544 39.375 6.5625ZM6.5625 39.375C7.42544 39.375 8.125 40.0746 8.125 40.9375V50.3125C8.125 51.1754 8.82456 51.875 9.6875 51.875H19.0625C19.9254 51.875 20.625 52.5746 20.625 53.4375C20.625 54.3004 19.9254 55 19.0625 55H9.6875C7.09867 55 5 52.9013 5 50.3125V40.9375C5 40.0746 5.69956 39.375 6.5625 39.375ZM53.4375 39.375C54.3004 39.375 55 40.0746 55 40.9375V50.3125C55 52.9013 52.9013 55 50.3125 55H40.9375C40.0746 55 39.375 54.3004 39.375 53.4375C39.375 52.5746 40.0746 51.875 40.9375 51.875H50.3125C51.1754 51.875 51.875 51.1754 51.875 50.3125V40.9375C51.875 40.0746 52.5746 39.375 53.4375 39.375Z" fill="white"/>
<path d="M14.375 19.0625C14.375 18.1996 15.0746 17.5 15.9375 17.5C16.8004 17.5 17.5 18.1996 17.5 19.0625V40.9375C17.5 41.8004 16.8004 42.5 15.9375 42.5C15.0746 42.5 14.375 41.8004 14.375 40.9375V19.0625Z" fill="white"/>
<path d="M20.625 19.0625C20.625 18.1996 21.3246 17.5 22.1875 17.5C23.0504 17.5 23.75 18.1996 23.75 19.0625V40.9375C23.75 41.8004 23.0504 42.5 22.1875 42.5C21.3246 42.5 20.625 41.8004 20.625 40.9375V19.0625Z" fill="white"/>
<path d="M26.875 19.0625C26.875 18.1996 27.5746 17.5 28.4375 17.5C29.3004 17.5 30 18.1996 30 19.0625V40.9375C30 41.8004 29.3004 42.5 28.4375 42.5C27.5746 42.5 26.875 41.8004 26.875 40.9375V19.0625Z" fill="white"/>
<path d="M33.125 19.0625C33.125 18.1996 33.8246 17.5 34.6875 17.5H37.8125C38.6754 17.5 39.375 18.1996 39.375 19.0625V40.9375C39.375 41.8004 38.6754 42.5 37.8125 42.5H34.6875C33.8246 42.5 33.125 41.8004 33.125 40.9375V19.0625Z" fill="white"/>
<path d="M42.5 19.0625C42.5 18.1996 43.1996 17.5 44.0625 17.5C44.9254 17.5 45.625 18.1996 45.625 19.0625V40.9375C45.625 41.8004 44.9254 42.5 44.0625 42.5C43.1996 42.5 42.5 41.8004 42.5 40.9375V19.0625Z" fill="white"/>
</svg>
