<svg width="59" height="58" viewBox="0 0 59 58" fill="none" xmlns="http://www.w3.org/2000/svg">
<circle cx="29.28" cy="29" r="29" fill="#D9D9D9"/>
<path d="M29.9999 9C18.9545 9 10 17.9545 10 29.0001C10 40.0463 18.9545 49 29.9999 49C41.0465 49 50 40.0463 50 29.0001C50 17.9552 41.0465 9.00096 29.9996 9.00096L29.9999 9ZM39.1717 37.8459C38.8135 38.4334 38.0444 38.6197 37.4569 38.2591C32.7612 35.3907 26.8498 34.7411 19.8881 36.3317C19.2172 36.4846 18.5485 36.0642 18.3956 35.3931C18.2421 34.722 18.6607 34.0533 19.3333 33.9004C26.9518 32.1598 33.4867 32.9093 38.7585 36.1311C39.346 36.4917 39.5323 37.2584 39.1717 37.8459ZM41.6196 32.4001C41.1683 33.1338 40.2082 33.3655 39.475 32.9141C34.0991 29.6096 25.9043 28.6526 19.5456 30.5828C18.7209 30.8319 17.8499 30.3672 17.5996 29.5439C17.3513 28.7193 17.8162 27.8499 18.6395 27.5991C25.9028 25.3952 34.9326 26.4628 41.1062 30.2566C41.8394 30.708 42.071 31.6679 41.6196 32.4001ZM41.8298 26.7293C35.3839 22.9006 24.7491 22.5486 18.5948 24.4165C17.6066 24.7162 16.5615 24.1583 16.262 23.17C15.9625 22.1813 16.5199 21.1369 17.5089 20.8364C24.5735 18.6917 36.3177 19.1061 43.739 23.5118C44.6298 24.0394 44.9212 25.1874 44.3934 26.0752C43.8679 26.9641 42.7168 27.2571 41.8308 26.7293H41.8298Z" fill="#152E0F" fill-opacity="0.92"/>
</svg>
