<svg width="59" height="58" viewBox="0 0 59 58" fill="none" xmlns="http://www.w3.org/2000/svg">
<circle cx="29.6399" cy="29" r="29" fill="#D9D9D9"/>
<path d="M32.5 9.00003L37.4515 9C37.809 10.7875 38.8015 13.0426 40.5376 15.2799C42.2387 17.472 44.4928 19 47.5 19V24C43.1165 24 39.8226 21.9661 37.5 19.4285V36.5C37.5 43.4036 31.9036 49 25 49C18.0964 49 12.5 43.4036 12.5 36.5C12.5 29.5965 18.0964 24 25 24V29C20.8579 29 17.5 32.3579 17.5 36.5C17.5 40.6422 20.8579 44 25 44C29.1421 44 32.5 40.6422 32.5 36.5V9.00003Z" fill="#152E0F" fill-opacity="0.92"/>
</svg>
