<svg width="60" height="60" viewBox="0 0 60 60" fill="none" xmlns="http://www.w3.org/2000/svg">
<rect width="60" height="60" fill="#152E0F" fill-opacity="0.92"/>
<path d="M12.8125 17.5C13.6754 17.5 14.375 16.8004 14.375 15.9375C14.375 15.0746 13.6754 14.375 12.8125 14.375C11.9496 14.375 11.25 15.0746 11.25 15.9375C11.25 16.8004 11.9496 17.5 12.8125 17.5Z" fill="white"/>
<path d="M19.0625 15.9375C19.0625 16.8004 18.3629 17.5 17.5 17.5C16.6371 17.5 15.9375 16.8004 15.9375 15.9375C15.9375 15.0746 16.6371 14.375 17.5 14.375C18.3629 14.375 19.0625 15.0746 19.0625 15.9375Z" fill="white"/>
<path d="M22.1875 17.5C23.0504 17.5 23.75 16.8004 23.75 15.9375C23.75 15.0746 23.0504 14.375 22.1875 14.375C21.3246 14.375 20.625 15.0746 20.625 15.9375C20.625 16.8004 21.3246 17.5 22.1875 17.5Z" fill="white"/>
<path d="M11.25 8.125C7.79822 8.125 5 10.9232 5 14.375V45.625C5 49.0768 7.79822 51.875 11.25 51.875H48.75C52.2018 51.875 55 49.0768 55 45.625V14.375C55 10.9232 52.2018 8.125 48.75 8.125H11.25ZM48.75 11.25C50.4759 11.25 51.875 12.6491 51.875 14.375V20.625H8.125V14.375C8.125 12.6491 9.52411 11.25 11.25 11.25H48.75ZM8.125 45.625V23.75H28.4375V48.75H11.25C9.52411 48.75 8.125 47.3509 8.125 45.625ZM31.5625 48.75V23.75H51.875V45.625C51.875 47.3509 50.4759 48.75 48.75 48.75H31.5625Z" fill="white"/>
</svg>
