<svg width="81" height="80" viewBox="0 0 81 80" fill="none" xmlns="http://www.w3.org/2000/svg">
<rect x="3" width="78" height="80" rx="28" fill="white"/>
<path d="M45.2683 40.802C47.627 41.73 49.5216 42.9673 50.9523 44.514C52.383 46.0607 53.0983 47.8393 53.0983 49.85C53.0983 50.43 52.963 51.1647 52.6923 52.054C52.4603 52.9047 52.1316 53.6393 51.7063 54.258C49.1543 58.202 44.6496 60.174 38.1923 60.174C34.8283 60.174 31.909 59.4973 29.4343 58.144C26.9596 56.752 25.7223 54.6833 25.7223 51.938C25.7223 48.0327 28.4096 44.688 33.7843 41.904C28.7576 40.048 26.2443 37.3027 26.2443 33.668C26.2443 31.464 26.863 29.608 28.1003 28.1C29.3376 26.592 30.9616 25.4707 32.9723 24.736C35.0216 24.0013 37.245 23.634 39.6423 23.634C41.421 23.634 43.2383 24.0593 45.0943 24.91C46.9503 25.722 48.2263 26.7853 48.9223 28.1C49.6183 29.5693 49.9663 30.942 49.9663 32.218C49.9663 33.8807 49.6183 35.408 48.9223 36.8C48.265 38.192 47.047 39.526 45.2683 40.802ZM39.2363 39.062C40.4736 38.25 41.421 37.5927 42.0783 37.09C42.7743 36.5487 43.3543 35.9107 43.8183 35.176C44.321 34.4027 44.5723 33.5133 44.5723 32.508C44.5723 31.348 44.1083 30.3813 43.1803 29.608C42.2523 28.8347 41.131 28.448 39.8163 28.448C36.9936 28.448 35.0216 28.9313 33.9003 29.898C32.8176 30.8647 32.2763 32.0053 32.2763 33.32C32.2763 34.364 32.6243 35.2533 33.3203 35.988C34.0163 36.684 34.7896 37.2447 35.6403 37.67C36.5296 38.0567 37.7283 38.5207 39.2363 39.062ZM46.9503 49.444C46.9503 48.7867 46.525 48.0907 45.6743 47.356C44.8623 46.6213 43.8956 45.9833 42.7743 45.442C41.653 44.862 40.7056 44.4753 39.9323 44.282C38.6176 44.8233 37.1676 45.6933 35.5823 46.892C33.997 48.052 33.0303 48.9027 32.6823 49.444C32.2956 49.9853 32.025 50.4493 31.8703 50.836C31.7543 51.184 31.6963 51.6093 31.6963 52.112C31.6963 52.692 32.0443 53.2527 32.7403 53.794C33.4363 54.2967 34.2676 54.7027 35.2343 55.012C36.201 55.3213 37.0323 55.476 37.7283 55.476C40.4736 55.476 42.697 54.9347 44.3983 53.852C46.0996 52.7307 46.9503 51.2613 46.9503 49.444Z" fill="black"/>
</svg>
