<svg width="78" height="80" viewBox="0 0 78 80" fill="none" xmlns="http://www.w3.org/2000/svg">
<rect width="78" height="80" rx="28" fill="white" fill-opacity="0.87"/>
<path d="M48.4859 22.764C49.1046 22.764 49.6073 22.938 49.9939 23.286C50.3806 23.5953 50.5739 23.982 50.5739 24.446C50.5739 24.8713 50.4773 25.258 50.2839 25.606C49.0079 27.6167 47.9059 29.492 46.9779 31.232C46.0499 32.972 44.8899 35.234 43.4979 38.018C42.9566 39.1007 42.0866 40.8213 40.8879 43.18C40.3079 44.3013 39.4766 46.138 38.3939 48.69C36.8086 52.2473 35.5133 54.954 34.5079 56.81C33.3093 59.13 31.9366 60.29 30.3899 60.29C28.4179 60.29 27.4319 59.594 27.4319 58.202C27.4319 57.6607 27.6059 57.158 27.9539 56.694C30.0419 53.6393 31.8206 50.6813 33.2899 47.82C34.7979 44.92 36.4219 41.5367 38.1619 37.67C40.1339 33.262 41.7966 29.8207 43.1499 27.346C43.8073 26.0313 44.5033 24.9487 45.2379 24.098C46.0113 23.2087 47.0939 22.764 48.4859 22.764Z" fill="black"/>
</svg>
