<svg width="80" height="80" viewBox="0 0 80 80" fill="none" xmlns="http://www.w3.org/2000/svg">
<rect x="2" width="78" height="80" rx="28" fill="white"/>
<path d="M49.4919 27.288C50.7679 29.26 51.7926 31.522 52.5659 34.074C53.3392 36.5873 53.7259 39.1587 53.7259 41.788C53.7259 44.92 53.1846 47.8973 52.1019 50.72C51.0579 53.5427 49.4726 55.8433 47.3459 57.622C45.2579 59.4007 42.7059 60.29 39.6899 60.29C36.8672 60.29 34.2765 59.5747 31.9179 58.144C29.5592 56.6747 27.7805 54.9733 26.5819 53.04C25.6925 51.6093 25.0159 50.0047 24.5519 48.226C24.0879 46.4087 23.8559 44.5913 23.8559 42.774C23.8559 39.6033 24.5132 36.51 25.8279 33.494C27.1812 30.478 29.0372 28.0613 31.3959 26.244C33.6386 24.5813 36.2099 23.75 39.1099 23.75C42.3192 23.75 45.7799 24.9293 49.4919 27.288ZM33.9479 31.29C33.5999 31.87 33.2519 32.392 32.9039 32.856C32.0532 34.132 31.4345 35.2147 31.0479 36.104C30.6612 36.9547 30.3132 38.2693 30.0039 40.048C29.8492 40.86 29.7719 41.8073 29.7719 42.89C29.7719 45.6353 30.3132 48.0133 31.3959 50.024C32.5172 51.996 34.0446 53.33 35.9779 54.026C36.9059 54.374 37.9499 54.548 39.1099 54.548C42.0099 54.548 44.1946 53.272 45.6639 50.72C47.1719 48.1293 47.9259 44.9393 47.9259 41.15C47.9259 37.6313 47.2686 34.7507 45.9539 32.508C44.6392 30.2267 42.6092 29.086 39.8639 29.086C38.7425 29.086 37.7759 29.26 36.9639 29.608C36.1906 29.956 35.1852 30.5167 33.9479 31.29Z" fill="black"/>
</svg>
