<svg width="81" height="87" viewBox="0 0 81 87" fill="none" xmlns="http://www.w3.org/2000/svg">
<rect x="3" y="7" width="78" height="80" rx="28" fill="black" fill-opacity="0.87"/>
<path d="M24.8537 48.458C24.8537 47.3753 25.2403 46.5247 26.0137 45.906C26.8257 45.2873 27.9857 44.688 29.4937 44.108L40.5717 38.888C42.6983 37.9213 43.7423 37.438 43.7037 37.438L45.5597 36.51C46.4103 36.046 47.1257 35.698 47.7057 35.466C48.3243 35.234 48.9817 35.118 49.6777 35.118C50.4123 35.118 50.973 35.3887 51.3597 35.93C51.7463 36.4713 51.9397 37.1093 51.9397 37.844C51.9397 38.6173 51.727 39.1973 51.3017 39.584C50.915 39.9707 50.393 40.338 49.7357 40.686C49.117 41.034 48.6337 41.3047 48.2857 41.498L39.9337 45.036L32.2777 48.226C34.327 48.9993 36.3957 49.7147 38.4837 50.372C40.5717 50.9907 43.1043 51.7253 46.0817 52.576C48.2857 53.1947 49.7357 53.62 50.4317 53.852C51.1663 54.084 51.7077 54.49 52.0557 55.07C52.4037 55.6113 52.5777 56.172 52.5777 56.752C52.5777 57.5253 52.307 58.202 51.7657 58.782C51.263 59.362 50.6637 59.652 49.9677 59.652C49.4263 59.652 48.6337 59.42 47.5897 58.956C46.507 58.5693 45.7723 58.318 45.3857 58.202C42.4857 57.3513 38.561 55.94 33.6117 53.968C32.7997 53.6587 31.9877 53.3687 31.1757 53.098C30.4023 52.7887 29.7257 52.5373 29.1457 52.344C27.9857 51.9573 26.9803 51.416 26.1297 50.72C25.279 50.024 24.8537 49.27 24.8537 48.458Z" fill="white"/>
</svg>
