<svg width="82" height="80" viewBox="0 0 82 80" fill="none" xmlns="http://www.w3.org/2000/svg">
<rect x="4" width="78" height="80" rx="28" fill="black"/>
<path d="M34.7837 29.608C34.513 30.6907 34.339 32.1213 34.2617 33.9C34.1843 35.4467 34.0683 36.6067 33.9137 37.38C35.035 36.916 36.0983 36.626 37.1037 36.51C38.109 36.3553 39.385 36.278 40.9317 36.278C43.329 36.278 45.417 36.8387 47.1957 37.96C48.9743 39.0427 50.3277 40.512 51.2557 42.368C52.1837 44.1853 52.6477 46.138 52.6477 48.226C52.6477 49.038 52.377 50.14 51.8357 51.532C51.2943 52.8853 50.7337 53.9293 50.1537 54.664C48.8003 56.4427 47.2343 57.8153 45.4557 58.782C43.677 59.71 41.7437 60.174 39.6557 60.174C38.0703 60.174 36.6203 59.9613 35.3057 59.536C34.0297 59.072 32.657 58.4533 31.1877 57.68C29.6797 56.868 28.5777 56.0367 27.8817 55.186C27.2243 54.2967 26.8957 53.1947 26.8957 51.88C26.8957 51.184 27.1857 50.6233 27.7657 50.198C28.3843 49.734 28.9643 49.502 29.5057 49.502C29.8537 49.502 30.163 49.5987 30.4337 49.792C30.7043 49.9853 31.149 50.372 31.7677 50.952L33.2177 52.344C34.1457 53.1173 35.0543 53.6973 35.9437 54.084C36.8717 54.4707 37.993 54.664 39.3077 54.664C40.5063 54.664 41.473 54.5093 42.2077 54.2C43.677 53.62 44.8177 52.866 45.6297 51.938C46.4803 51.01 46.9057 49.5213 46.9057 47.472C46.9057 45.5 46.2483 43.9727 44.9337 42.89C43.619 41.7687 41.3957 41.208 38.2637 41.208C37.8383 41.208 37.2197 41.324 36.4077 41.556C35.5957 41.788 34.803 42.0393 34.0297 42.31C32.1737 42.9287 31.033 43.238 30.6077 43.238C30.0663 43.238 29.525 43.006 28.9837 42.542C28.4423 42.078 28.1717 41.4593 28.1717 40.686C28.8677 36.0073 29.2157 32.1213 29.2157 29.028L29.1577 27.578C29.0803 26.882 29.0417 26.302 29.0417 25.838C29.0417 25.142 29.409 24.62 30.1437 24.272C30.917 23.8853 31.7097 23.692 32.5217 23.692C33.2177 23.692 34.7257 23.808 37.0457 24.04L39.8297 24.272C40.1777 24.3107 40.6997 24.33 41.3957 24.33L43.5417 24.272C43.967 24.2333 44.5857 24.214 45.3977 24.214C46.5577 24.214 47.5243 24.388 48.2977 24.736C49.071 25.084 49.4577 25.6447 49.4577 26.418C49.4577 27.6167 49.2643 28.4867 48.8777 29.028C48.491 29.5693 48.0463 29.84 47.5437 29.84C47.0797 29.84 46.3063 29.7627 45.2237 29.608C43.793 29.4533 42.111 29.376 40.1777 29.376C38.8243 29.376 37.0263 29.4533 34.7837 29.608Z" fill="white"/>
</svg>
