<svg width="79" height="89" viewBox="0 0 79 89" fill="none" xmlns="http://www.w3.org/2000/svg">
<rect x="1" y="9" width="78" height="80" rx="28" fill="white" fill-opacity="0.87"/>
<path d="M47.8418 45.326C49.5045 45.326 50.6065 45.5 51.1478 45.848C51.6892 46.1573 51.9598 46.8533 51.9598 47.936C51.9598 48.7867 51.5538 49.4053 50.7418 49.792C49.9298 50.1787 48.9825 50.372 47.8998 50.372L45.9858 50.43C44.6712 50.5073 43.7045 50.546 43.0858 50.546C42.5445 50.546 42.1965 50.5267 42.0418 50.488C41.9645 50.7587 41.9258 51.2033 41.9258 51.822C41.8872 52.3633 41.9452 53.214 42.0998 54.374C42.1385 54.606 42.1772 54.9347 42.2158 55.36C42.2545 55.7853 42.2738 56.172 42.2738 56.52C42.2738 57.6413 42.0612 58.492 41.6358 59.072C41.2105 59.6133 40.5145 59.884 39.5478 59.884C38.9678 59.884 38.3878 59.6713 37.8078 59.246C37.2665 58.782 36.9958 58.2793 36.9958 57.738C36.9958 54.6833 36.9185 52.2473 36.7638 50.43C35.7198 50.314 35.0625 50.256 34.7918 50.256C33.8638 50.256 32.9552 50.314 32.0658 50.43C30.9058 50.5073 30.0745 50.546 29.5718 50.546C28.5665 50.5073 27.7158 50.314 27.0198 49.966C26.3625 49.5793 26.0338 48.9993 26.0338 48.226C26.0338 47.3753 26.2078 46.776 26.5558 46.428C27.1358 45.8093 28.2765 45.5 29.9778 45.5C30.8672 45.5 31.8532 45.4613 32.9358 45.384C33.8638 45.3067 34.5018 45.268 34.8498 45.268C35.1978 45.268 35.5265 45.3067 35.8358 45.384C36.1452 45.4227 36.4352 45.442 36.7058 45.442C36.7832 45.094 36.8218 44.5333 36.8218 43.76C36.8218 43.1027 36.7832 42.1553 36.7058 40.918C36.6285 39.758 36.5898 38.9073 36.5898 38.366C36.5898 37.206 36.7445 36.3553 37.0538 35.814C37.4018 35.2727 38.0785 35.002 39.0838 35.002C39.9732 35.002 40.6498 35.1953 41.1138 35.582C41.5778 35.93 41.8098 36.4327 41.8098 37.09C41.8485 37.902 41.8292 39.0813 41.7518 40.628L41.6938 43.238C41.6938 44.166 41.7132 44.862 41.7518 45.326C42.6798 45.4033 43.3565 45.442 43.7818 45.442C44.6712 45.442 45.3285 45.4227 45.7538 45.384L47.8418 45.326Z" fill="black"/>
</svg>
