<svg width="79" height="80" viewBox="0 0 79 80" fill="none" xmlns="http://www.w3.org/2000/svg">
<rect x="1" width="78" height="80" rx="28" fill="white"/>
<path d="M41.4673 36.8C44.6379 37.496 47.2673 38.8687 49.3553 40.918C51.4433 42.9673 52.4873 45.3453 52.4873 48.052C52.4873 49.676 52.1006 51.2613 51.3273 52.808C50.0899 55.2827 48.2339 57.1387 45.7593 58.376C43.3233 59.6133 40.5006 60.232 37.2913 60.232C35.2806 60.232 33.4826 59.8647 31.8973 59.13C30.3119 58.3567 28.7459 57.332 27.1993 56.056C26.6193 55.5147 26.0973 54.7413 25.6333 53.736C25.2079 52.7307 24.9953 51.8993 24.9953 51.242C24.9953 50.3913 25.2273 49.7147 25.6913 49.212C26.1939 48.6707 26.8513 48.4 27.6633 48.4C28.4753 48.4 29.1133 48.5933 29.5773 48.98C30.0413 49.3667 30.6019 49.9853 31.2593 50.836C31.8779 51.648 32.4386 52.3053 32.9413 52.808C33.4439 53.272 34.1206 53.678 34.9713 54.026C35.8219 54.374 36.8853 54.548 38.1613 54.548C40.7519 54.548 42.7819 53.91 44.2513 52.634C45.7206 51.358 46.4553 49.56 46.4553 47.24C46.4553 46.3507 45.9719 45.4613 45.0053 44.572C44.0386 43.644 43.1299 42.9867 42.2793 42.6C41.7766 42.3293 40.8486 42.0587 39.4953 41.788C37.6779 41.324 36.3053 40.8793 35.3773 40.454C34.4879 39.99 34.0433 39.2747 34.0433 38.308C34.0433 37.6507 34.3333 37.0127 34.9133 36.394C35.4933 35.7367 36.3633 34.9247 37.5233 33.958C38.6833 32.9913 39.5533 32.1987 40.1333 31.58C40.7133 30.9227 41.0033 30.2653 41.0033 29.608C40.2686 29.4147 39.1666 29.318 37.6973 29.318C37.0399 29.318 36.0539 29.3567 34.7393 29.434C33.5793 29.5113 32.6899 29.55 32.0713 29.55C30.6793 29.55 29.4806 29.318 28.4753 28.854C27.5086 28.39 27.0253 27.7907 27.0253 27.056C27.0253 26.244 27.1026 25.606 27.2573 25.142C27.4119 24.6393 27.7019 24.33 28.1273 24.214C28.3979 24.098 28.8813 24.04 29.5773 24.04C31.4719 24.04 33.1153 24.098 34.5073 24.214C36.0539 24.2913 37.2333 24.33 38.0453 24.33L42.8593 24.272C46.8033 24.272 48.7753 25.2193 48.7753 27.114C48.7753 28.5447 48.0406 30.1687 46.5713 31.986C45.1406 33.7647 43.4393 35.3693 41.4673 36.8Z" fill="black"/>
</svg>
