<svg width="78" height="80" viewBox="0 0 78 80" fill="none" xmlns="http://www.w3.org/2000/svg">
<rect width="78" height="80" rx="28" fill="white" fill-opacity="0.87"/>
<path d="M52.8452 27.81C53.4252 28.506 53.8312 29.0667 54.0632 29.492C54.2952 29.9173 54.4112 30.3233 54.4112 30.71C54.4112 31.174 54.1019 31.7153 53.4832 32.334C52.9032 32.9527 52.3232 33.262 51.7432 33.262C50.9699 33.262 50.3512 33.146 49.8872 32.914C49.4232 32.682 49.0366 32.3147 48.7272 31.812C48.1086 30.884 47.3546 30.0913 46.4652 29.434C45.5759 28.738 44.1839 28.39 42.2892 28.39C40.6652 28.39 38.8092 28.7573 36.7212 29.492C34.6719 30.2267 33.2026 31.1353 32.3132 32.218C31.5399 33.1847 30.8632 34.654 30.2832 36.626C29.7419 38.598 29.4712 40.512 29.4712 42.368C29.4712 44.6107 29.9546 46.6793 30.9212 48.574C31.9266 50.43 33.3572 51.9187 35.2132 53.04C37.1079 54.1613 39.3699 54.722 41.9992 54.722C43.4299 54.722 44.8992 54.4513 46.4072 53.91C47.9539 53.33 49.2879 52.402 50.4092 51.126H50.3512C51.0472 50.3913 51.9172 50.024 52.9612 50.024C53.5799 50.024 54.1599 50.2947 54.7012 50.836C55.2812 51.3773 55.5712 51.9187 55.5712 52.46C55.5712 53.04 55.4746 53.562 55.2812 54.026C55.1266 54.4513 54.8172 54.9347 54.3532 55.476C52.7679 57.2547 50.8926 58.4727 48.7272 59.13C46.5619 59.7873 43.9712 60.116 40.9552 60.116C38.2872 60.116 35.5806 59.478 32.8352 58.202C30.1286 56.926 28.0406 55.3793 26.5712 53.562C25.7979 52.4407 25.0439 50.836 24.3092 48.748C23.6132 46.6213 23.2652 44.9007 23.2652 43.586C23.2652 40.222 23.7679 37.032 24.7732 34.016C25.8172 30.9613 27.3639 28.5253 29.4132 26.708C30.7666 25.4707 32.7192 24.5427 35.2712 23.924C37.8232 23.3053 40.1626 22.996 42.2892 22.996C44.8799 22.996 46.9099 23.3633 48.3792 24.098C49.8872 24.794 51.3759 26.0313 52.8452 27.81Z" fill="black"/>
</svg>
