<svg width="79" height="83" viewBox="0 0 79 83" fill="none" xmlns="http://www.w3.org/2000/svg">
<rect x="1" y="3" width="78" height="80" rx="28" fill="white"/>
<path d="M34.8134 53.968C36.128 54.0453 36.998 54.084 37.4234 54.084C38.738 54.084 39.898 54.0647 40.9034 54.026C41.9474 53.9873 42.8367 53.9487 43.5714 53.91C45.466 53.794 47.1674 53.736 48.6754 53.736C50.1447 53.736 51.2274 54.1227 51.9234 54.896C52.6194 55.6693 52.9674 56.694 52.9674 57.97C52.9674 58.5887 52.5614 59.0913 51.7494 59.478C50.9374 59.826 50.106 60 49.2554 60C48.5207 60 46.9934 59.9227 44.6734 59.768C41.8894 59.536 39.7047 59.42 38.1194 59.42C37.2687 59.42 36.2634 59.478 35.1034 59.594C34.6394 59.6327 34.0787 59.6713 33.4214 59.71C32.764 59.7487 32.0294 59.768 31.2174 59.768C29.6707 59.768 28.4914 59.5553 27.6794 59.13C26.8674 58.7047 26.4614 57.9313 26.4614 56.81C26.4614 55.8433 26.848 54.8573 27.6214 53.852C28.3947 52.8467 29.4774 51.648 30.8694 50.256L32.2614 48.864C32.88 48.2067 34.0207 47.0853 35.6834 45.5C38.4287 43.0253 40.5554 40.8407 42.0634 38.946C43.61 37.0513 44.3834 35.176 44.3834 33.32C44.3834 32.1213 43.8034 31.1547 42.6434 30.42C41.522 29.6467 40.2267 29.26 38.7574 29.26C36.5147 29.26 34.8907 29.7627 33.8854 30.768C32.9187 31.7347 32.4354 33.146 32.4354 35.002C32.4354 35.466 32.1647 35.8913 31.6234 36.278C31.1207 36.626 30.4827 36.8 29.7094 36.8C28.6267 36.8 27.8727 36.4133 27.4474 35.64C27.022 34.8667 26.8094 33.9193 26.8094 32.798C26.8094 31.0193 27.3507 29.4533 28.4334 28.1C29.516 26.708 30.9854 25.6253 32.8414 24.852C34.736 24.0787 36.824 23.692 39.1054 23.692C40.7294 23.692 42.4114 24.098 44.1514 24.91C45.93 25.6833 47.3994 26.7467 48.5594 28.1C49.758 29.4147 50.3574 30.8647 50.3574 32.45C50.3574 34.8473 49.758 37.1287 48.5594 39.294C47.3607 41.4593 45.9494 43.3927 44.3254 45.094C42.74 46.7567 40.6714 48.7287 38.1194 51.01C36.882 52.054 35.78 53.04 34.8134 53.968Z" fill="black"/>
</svg>
