<svg width="79" height="80" viewBox="0 0 79 80" fill="none" xmlns="http://www.w3.org/2000/svg">
<rect x="1" width="78" height="80" rx="28" fill="black"/>
<path d="M41.8624 29.26C40.5477 29.7627 39.4264 30.42 38.4984 31.232C37.5704 32.0053 36.7391 32.9527 36.0044 34.074L35.0764 35.524C34.3804 36.568 33.8584 37.4187 33.5104 38.076C33.1624 38.7333 32.9304 39.4293 32.8144 40.164C34.7091 38.2307 37.4157 37.264 40.9344 37.264C42.4424 37.264 44.0277 37.6893 45.6904 38.54C47.3917 39.3907 48.7644 40.3767 49.8084 41.498C50.4657 42.2327 51.0071 43.354 51.4324 44.862C51.8964 46.37 52.1284 47.9747 52.1284 49.676C52.1284 51.0293 51.7224 52.4213 50.9104 53.852C50.0984 55.244 49.0931 56.462 47.8944 57.506C46.7344 58.55 45.6517 59.2073 44.6464 59.478C43.0997 59.8647 41.7657 60.058 40.6444 60.058C38.0924 60.058 35.7337 59.362 33.5684 57.97C31.4031 56.578 29.6824 54.722 28.4064 52.402C27.1304 50.0433 26.4924 47.4913 26.4924 44.746C26.4924 40.9567 27.4011 37.3413 29.2184 33.9C31.0744 30.42 33.5104 27.5973 36.5264 25.432C37.0291 25.084 37.9184 24.7167 39.1944 24.33C40.5091 23.9047 41.6691 23.692 42.6744 23.692C44.5691 23.692 45.5164 24.446 45.5164 25.954C45.5164 26.8433 45.1877 27.5393 44.5304 28.042C43.9117 28.5447 43.0224 28.9507 41.8624 29.26ZM39.5424 54.722C40.4317 54.722 41.1857 54.6833 41.8044 54.606C42.4231 54.49 42.9837 54.2773 43.4864 53.968C44.2597 53.4267 44.9364 52.7887 45.5164 52.054C46.1351 51.2807 46.4444 50.546 46.4444 49.85C46.4444 47.182 45.7871 45.3067 44.4724 44.224C43.1964 43.1413 41.6884 42.5807 39.9484 42.542C39.0591 42.542 38.0344 42.7933 36.8744 43.296C35.7531 43.76 34.7864 44.3787 33.9744 45.152C33.2011 45.9253 32.8144 46.6793 32.8144 47.414C32.8144 49.0767 33.1624 50.4687 33.8584 51.59C34.5931 52.6727 35.4824 53.4653 36.5264 53.968C37.5704 54.4707 38.5757 54.722 39.5424 54.722Z" fill="white"/>
</svg>
