<svg width="79" height="83" viewBox="0 0 79 83" fill="none" xmlns="http://www.w3.org/2000/svg">
<rect width="78" height="80" rx="28" fill="white" fill-opacity="0.87"/>
<path d="M31.0426 48.558C30.424 49.1767 29.7473 49.486 29.0126 49.486C28.3553 49.486 27.6786 49.2927 26.9826 48.906C26.2866 48.5193 25.9386 48.1713 25.9386 47.862C25.9386 47.3593 26.2866 46.3347 26.9826 44.788C27.6786 43.2027 28.684 41.076 29.9986 38.408C31.5453 35.2373 32.628 32.9173 33.2466 31.448C33.788 30.0947 34.542 28.8187 35.5086 27.62C36.514 26.3827 37.6546 25.764 38.9306 25.764C39.704 25.764 40.516 26.0733 41.3666 26.692C41.7533 26.9627 42.7586 28.2387 44.3826 30.52C46.0066 32.7627 47.1666 34.4253 47.8626 35.508C48.636 36.6293 49.2933 37.8473 49.8346 39.162C50.376 40.438 51.0333 41.6947 51.8066 42.932C52.116 43.3573 52.406 43.744 52.6766 44.092C53.6046 45.1747 54.0686 46.0833 54.0686 46.818C54.0686 47.5527 53.74 48.152 53.0826 48.616C52.4253 49.08 51.6906 49.312 50.8786 49.312C50.2213 49.312 49.5833 49.0413 48.9646 48.5C48.346 47.92 47.766 47.2433 47.2246 46.47C46.722 45.658 46.2966 44.962 45.9486 44.382C45.214 43.106 44.4406 41.656 43.6286 40.032C42.8166 38.4467 42.1013 37.1127 41.4826 36.03C40.9026 34.9473 40.2066 33.8453 39.3946 32.724C38.7373 33.304 37.848 34.522 36.7266 36.378C35.6053 38.234 34.89 39.5293 34.5806 40.264C34.31 40.8053 33.846 41.9847 33.1886 43.802C32.4926 46.006 31.7773 47.5913 31.0426 48.558Z" fill="black"/>
</svg>
