<svg width="78" height="80" viewBox="0 0 78 80" fill="none" xmlns="http://www.w3.org/2000/svg">
<rect width="78" height="80" rx="28" fill="black"/>
<path d="M35.271 25.2C35.271 27.0947 34.923 29.2987 34.227 31.812C33.5697 34.2867 32.603 37.3413 31.327 40.976L29.993 44.978C30.6503 45.094 31.327 45.152 32.023 45.152C33.2217 45.152 35.0197 45.036 37.417 44.804C39.8143 44.572 41.535 44.456 42.579 44.456L42.521 38.076C42.4437 33.668 42.405 30.42 42.405 28.332C42.405 25.5867 43.3137 24.214 45.131 24.214C46.5617 24.214 47.4703 24.5813 47.857 25.316C48.2823 26.0507 48.495 27.1527 48.495 28.622C48.495 30.13 48.379 32.4693 48.147 35.64C48.1083 36.2587 48.0503 37.2833 47.973 38.714C47.8957 40.1447 47.857 41.382 47.857 42.426L47.915 44.282L49.075 44.224C50.003 44.1467 50.7183 44.108 51.221 44.108C52.149 44.108 53.0383 44.4173 53.889 45.036C54.7397 45.616 55.165 46.312 55.165 47.124C55.165 48.0907 55.0103 48.8447 54.701 49.386C54.4303 49.9273 54.1017 50.198 53.715 50.198C53.0577 50.198 52.2263 50.1207 51.221 49.966C50.989 49.966 50.641 49.9467 50.177 49.908C49.713 49.8307 49.2683 49.792 48.843 49.792L47.857 49.85L47.915 57.68C47.915 58.492 47.6443 59.1107 47.103 59.536C46.5617 59.9613 45.943 60.174 45.247 60.174C44.3963 60.174 43.6423 59.9033 42.985 59.362C42.3277 58.8207 41.999 58.144 41.999 57.332C41.999 54.7413 42.0377 52.7113 42.115 51.242C42.1537 50.894 42.173 50.4687 42.173 49.966C41.013 49.9273 39.0023 50.0627 36.141 50.372C33.4343 50.6813 31.385 50.836 29.993 50.836C28.2143 50.836 26.7063 50.5847 25.469 50.082C24.2703 49.5793 23.671 48.7867 23.671 47.704C23.671 46.66 23.8837 45.384 24.309 43.876C24.7343 42.368 25.3723 40.338 26.223 37.786C26.6097 36.7807 26.8997 35.9493 27.093 35.292C27.789 33.32 28.311 31.6573 28.659 30.304C29.007 28.912 29.3937 27.23 29.819 25.258C29.9737 24.6393 30.3023 24.1753 30.805 23.866C31.3077 23.5567 31.8877 23.402 32.545 23.402C33.241 23.402 33.8597 23.576 34.401 23.924C34.981 24.2333 35.271 24.6587 35.271 25.2Z" fill="white"/>
</svg>
