<svg width="78" height="80" viewBox="0 0 78 80" fill="none" xmlns="http://www.w3.org/2000/svg">
<rect width="78" height="80" rx="28" fill="black" fill-opacity="0.87"/>
<path d="M52.1644 22.764C52.7057 22.764 53.1117 22.9767 53.3824 23.402C53.6531 23.8273 53.7884 24.3107 53.7884 24.852C53.7884 25.5867 53.4791 26.3213 52.8604 27.056L50.5984 29.956C46.1904 35.7173 42.6524 40.4927 39.9844 44.282C37.3164 48.0713 34.7451 52.228 32.2704 56.752C31.0717 59.072 29.6991 60.232 28.1524 60.232C27.4564 60.232 26.8377 60.058 26.2964 59.71C25.7551 59.3233 25.4844 58.6853 25.4844 57.796C25.4844 57.216 25.6584 56.7327 26.0064 56.346C27.2824 54.5287 29.5637 51.1453 32.8504 46.196C35.9437 41.5947 38.4957 37.844 40.5064 34.944C42.5557 32.0053 44.5471 29.3373 46.4804 26.94C46.6351 26.7467 47.0024 26.2633 47.5824 25.49C48.2011 24.7167 48.8971 24.0787 49.6704 23.576C50.4437 23.0347 51.2751 22.764 52.1644 22.764ZM29.1964 23.402C30.3564 23.402 31.5357 23.6727 32.7344 24.214C33.9717 24.7553 34.9964 25.5287 35.8084 26.534C36.6204 27.5007 37.0264 28.5833 37.0264 29.782C37.0264 31.4833 36.6591 33.03 35.9244 34.422C35.1897 35.814 34.1844 36.916 32.9084 37.728C31.6324 38.5013 30.2211 38.888 28.6744 38.888C26.2384 38.888 24.2857 38.1727 22.8164 36.742C21.3471 35.2727 20.6124 33.3587 20.6124 31C20.6124 28.5253 21.3664 26.65 22.8744 25.374C24.4211 24.0593 26.5284 23.402 29.1964 23.402ZM27.9204 34.48C30.7044 34.48 32.0964 32.9913 32.0964 30.014C32.0964 29.2793 31.8257 28.738 31.2844 28.39C30.7817 28.042 29.9697 27.868 28.8484 27.868C27.6111 27.868 26.6637 28.1967 26.0064 28.854C25.3877 29.4727 25.0784 30.188 25.0784 31C25.0784 31.8893 25.3491 32.7013 25.8904 33.436C26.4317 34.132 27.1084 34.48 27.9204 34.48ZM57.3844 51.88C57.3844 53.388 56.9591 54.7413 56.1084 55.94C55.2964 57.1 54.1944 58.0087 52.8024 58.666C51.4491 59.3233 50.0184 59.652 48.5104 59.652C47.2344 59.652 46.0357 59.3427 44.9144 58.724C43.7931 58.0667 42.8844 57.1773 42.1884 56.056C41.5311 54.9347 41.2024 53.678 41.2024 52.286C41.2024 50.8553 41.5504 49.502 42.2464 48.226C42.9811 46.95 44.0251 45.9253 45.3784 45.152C46.7317 44.34 48.3171 43.934 50.1344 43.934C52.4931 43.934 54.2911 44.63 55.5284 46.022C56.7657 47.3753 57.3844 49.328 57.3844 51.88ZM49.6704 48.342C48.5491 48.342 47.6404 48.632 46.9444 49.212C46.2871 49.792 45.9584 50.7007 45.9584 51.938C45.9584 53.0207 46.2291 53.852 46.7704 54.432C47.3117 55.012 47.8917 55.302 48.5104 55.302C51.4877 55.302 52.9764 53.968 52.9764 51.3C52.9764 50.4107 52.6864 49.6953 52.1064 49.154C51.5264 48.6127 50.7144 48.342 49.6704 48.342Z" fill="white"/>
</svg>
