<svg width="79" height="83" viewBox="0 0 79 83" fill="none" xmlns="http://www.w3.org/2000/svg">
<rect y="3" width="78" height="80" rx="28" fill="black" fill-opacity="0.9"/>
<path d="M48.9161 39.932C50.3468 39.932 51.4101 40.0867 52.1061 40.396C52.8021 40.7053 53.1501 41.2467 53.1501 42.02C53.1501 42.4453 53.0148 42.8707 52.7441 43.296C52.3575 44.0693 51.7968 44.572 51.0621 44.804C50.3661 45.036 49.5155 45.152 48.5101 45.152C47.4275 45.152 46.3641 45.094 45.3201 44.978C44.9721 44.978 44.4115 44.9587 43.6381 44.92C42.9035 44.8427 42.2268 44.804 41.6081 44.804C40.2161 44.804 38.7855 44.862 37.3161 44.978C36.8135 45.0167 36.0788 45.0553 35.1121 45.094C34.1455 45.1327 33.2755 45.152 32.5021 45.152C30.9555 45.152 29.7955 45.094 29.0221 44.978C28.2875 44.862 27.7461 44.6107 27.3981 44.224C27.0501 43.8373 26.8761 43.2187 26.8761 42.368C26.8761 41.2853 27.4368 40.4927 28.5581 39.99C29.0221 39.8353 29.5828 39.758 30.2401 39.758C30.5108 39.758 31.9221 39.816 34.4741 39.932C34.8221 39.9707 35.4408 40.0287 36.3301 40.106C37.2195 40.1833 37.9735 40.222 38.5921 40.222L39.6941 40.164C42.9421 40.0093 46.0161 39.932 48.9161 39.932ZM48.9161 49.56C50.3855 49.56 51.4488 49.6953 52.1061 49.966C52.8021 50.2367 53.1501 50.7587 53.1501 51.532C53.1501 51.9573 53.0148 52.3827 52.7441 52.808C52.3575 53.5813 51.7968 54.1033 51.0621 54.374C50.3275 54.606 49.4768 54.722 48.5101 54.722C47.7755 54.722 46.7121 54.6833 45.3201 54.606C44.1601 54.49 42.9228 54.432 41.6081 54.432C40.2161 54.432 38.7855 54.49 37.3161 54.606C36.8135 54.6447 36.0788 54.6833 35.1121 54.722C34.1455 54.7607 33.2755 54.78 32.5021 54.78C30.9941 54.78 29.8535 54.722 29.0801 54.606C28.3068 54.4513 27.7461 54.1807 27.3981 53.794C27.0501 53.3687 26.8761 52.7307 26.8761 51.88C26.8761 50.7973 27.4368 50.0047 28.5581 49.502C28.7901 49.386 29.3508 49.328 30.2401 49.328C31.3615 49.328 32.7728 49.4053 34.4741 49.56C36.4848 49.7147 37.9541 49.792 38.8821 49.792C39.5008 49.792 40.8155 49.7533 42.8261 49.676C45.3008 49.5987 47.3308 49.56 48.9161 49.56Z" fill="white"/>
</svg>
