<svg width="78" height="80" viewBox="0 0 78 80" fill="none" xmlns="http://www.w3.org/2000/svg">
<rect width="78" height="80" rx="28" fill="white"/>
<path d="M52.0473 26.128C51.5446 28.4867 50.9066 30.826 50.1333 33.146C49.3986 35.466 48.4513 38.134 47.2913 41.15C45.3193 46.4473 43.9273 50.72 43.1153 53.968C42.4579 56.172 41.8393 57.7573 41.2593 58.724C40.6793 59.6907 40.0026 60.174 39.2293 60.174C38.6106 60.174 37.7793 59.8067 36.7353 59.072C36.4646 58.724 36.3293 58.2407 36.3293 57.622C36.3293 57.1193 36.4646 56.3847 36.7353 55.418C37.0059 54.4127 37.3346 53.3107 37.7213 52.112L38.4173 50.024C38.9199 48.3613 39.7706 46.1187 40.9693 43.296C41.8586 41.1307 42.6513 39.0427 43.3473 37.032C44.0819 35.0213 44.7973 32.624 45.4933 29.84C43.4826 30.4587 41.4913 30.768 39.5193 30.768C38.5526 30.768 37.0833 30.6327 35.1113 30.362C33.4873 30.13 32.3273 30.014 31.6313 30.014C31.6699 30.594 31.9599 31.696 32.5013 33.32C33.1586 34.9827 33.4873 36.2393 33.4873 37.09C33.4873 37.5927 33.3133 38.018 32.9653 38.366C32.6173 38.714 32.0566 38.888 31.2833 38.888C30.2779 38.888 29.5046 38.5787 28.9633 37.96C28.4606 37.3027 28.0353 36.568 27.6873 35.756C27.3779 34.9053 27.1459 34.3253 26.9913 34.016C26.4499 32.7787 26.0246 31.5027 25.7153 30.188C25.4059 28.8347 25.2513 27.636 25.2513 26.592C25.2513 25.9733 25.4059 25.432 25.7153 24.968C26.0633 24.504 26.4499 24.272 26.8753 24.272C27.4553 24.3493 28.3253 24.504 29.4853 24.736C31.3413 25.0453 32.8879 25.2967 34.1253 25.49C35.4013 25.6447 36.7546 25.722 38.1853 25.722C41.7039 25.722 44.4106 25.1033 46.3053 23.866C46.5759 23.7113 46.9819 23.634 47.5233 23.634C48.5286 23.634 49.5339 23.8853 50.5393 24.388C51.5446 24.852 52.0473 25.432 52.0473 26.128Z" fill="black"/>
</svg>
