<svg width="80" height="80" viewBox="0 0 80 80" fill="none" xmlns="http://www.w3.org/2000/svg">
<rect x="2" width="78" height="80" rx="28" fill="white"/>
<path d="M43.7019 29.492C43.3152 37.0707 43.1219 43.1027 43.1219 47.588C43.1219 49.908 43.1799 52.112 43.2959 54.2C43.6052 54.432 44.2045 54.548 45.0939 54.548L46.4279 54.49C46.9692 54.4127 47.4719 54.374 47.9359 54.374C48.9412 54.374 49.7145 54.548 50.2559 54.896C50.8359 55.244 51.1259 55.9207 51.1259 56.926C51.1259 57.8927 50.8359 58.6467 50.2559 59.188C49.7145 59.7293 48.5739 60 46.8339 60C45.3645 60 43.5859 59.884 41.4979 59.652C40.9952 59.6133 40.5119 59.5747 40.0479 59.536C39.5839 59.4973 39.1585 59.478 38.7719 59.478C36.6452 59.5167 35.0599 59.594 34.0159 59.71C32.9719 59.826 31.7925 59.884 30.4779 59.884C29.2792 59.884 28.6799 58.9753 28.6799 57.158C28.6799 55.418 29.8012 54.548 32.0439 54.548C32.3919 54.548 32.9525 54.5867 33.7259 54.664C34.3832 54.78 35.0792 54.838 35.8139 54.838C36.2392 54.838 36.5872 54.8187 36.8579 54.78C36.8965 52.1893 37.0319 48.4193 37.2639 43.47C37.4959 37.67 37.6119 33.378 37.6119 30.594C37.4185 30.6327 36.7419 30.9033 35.5819 31.406C33.8032 32.2953 32.4885 32.74 31.6379 32.74C31.1739 32.74 30.7485 32.508 30.3619 32.044C29.9752 31.5413 29.7819 30.9613 29.7819 30.304C29.7819 29.6467 30.1879 29.0087 30.9999 28.39C31.8119 27.7713 33.1265 26.9593 34.9439 25.954C35.9492 25.4513 36.9159 24.8907 37.8439 24.272C38.0759 24.1173 38.4045 23.9627 38.8299 23.808C39.2939 23.6533 39.6419 23.576 39.8739 23.576C40.8792 23.576 41.7879 23.7887 42.5999 24.214C43.4505 24.6007 43.8759 25.1227 43.8759 25.78L43.7019 29.492Z" fill="black"/>
</svg>
