<svg width="80" height="86" viewBox="0 0 80 86" fill="none" xmlns="http://www.w3.org/2000/svg">
<rect x="2" y="6" width="78" height="80" rx="28" fill="black" fill-opacity="0.87"/>
<path d="M45.8624 44.63C47.641 44.63 48.5304 45.6353 48.5304 47.646C48.5304 48.69 48.163 49.444 47.4284 49.908C46.7324 50.372 45.8624 50.604 44.8184 50.604C44.509 50.604 44.1804 50.5847 43.8324 50.546C43.4844 50.5073 43.117 50.4687 42.7304 50.43C41.5704 50.2367 40.5264 50.14 39.5984 50.14C38.941 50.14 37.955 50.2173 36.6404 50.372C35.2484 50.5267 34.185 50.604 33.4504 50.604C32.4064 50.604 31.4784 50.4107 30.6664 50.024C29.8544 49.5987 29.4484 48.9027 29.4484 47.936C29.4484 46.5827 29.951 45.7127 30.9564 45.326C31.9617 44.9007 33.373 44.688 35.1904 44.688L37.1044 44.746C38.0324 44.8233 38.7477 44.862 39.2504 44.862L43.4844 44.746L45.8624 44.63Z" fill="white"/>
</svg>
