<svg width="80" height="80" viewBox="0 0 80 80" fill="none" xmlns="http://www.w3.org/2000/svg">
<rect x="2" width="78" height="80" rx="28" fill="black"/>
<path d="M36.0003 54.316C37.315 53.8907 38.5716 53.1173 39.7703 51.996C41.0076 50.8747 42.0323 49.618 42.8443 48.226C43.695 46.7953 44.1976 45.4227 44.3523 44.108C43.2696 44.8813 42.1676 45.4227 41.0463 45.732C39.925 46.0413 38.6296 46.196 37.1603 46.196C35.1883 46.196 33.5643 45.8673 32.2883 45.21C31.0123 44.514 29.659 43.528 28.2283 42.252C27.9963 42.02 27.7063 41.5173 27.3583 40.744C27.0103 39.932 26.701 38.946 26.4303 37.786C26.1596 36.5873 26.0243 35.3693 26.0243 34.132C26.0243 33.0107 26.3723 31.8313 27.0683 30.594C27.7643 29.3567 28.6343 28.2547 29.6783 27.288C30.761 26.2827 31.7856 25.5673 32.7523 25.142C33.6416 24.7553 34.6663 24.4267 35.8263 24.156C37.025 23.8467 38.0303 23.692 38.8423 23.692C41.5876 23.692 43.8883 24.33 45.7443 25.606C47.639 26.882 49.031 28.5833 49.9203 30.71C50.8096 32.8367 51.2543 35.1953 51.2543 37.786C51.2543 42.2327 50.2683 46.2927 48.2963 49.966C46.3243 53.6007 43.8303 56.4233 40.8143 58.434C40.3116 58.782 39.4416 59.1687 38.2043 59.594C37.0056 59.9807 35.9036 60.174 34.8983 60.174C34.125 60.174 33.4483 59.826 32.8683 59.13C32.2883 58.434 31.9983 57.6413 31.9983 56.752C31.9983 56.1333 32.211 55.708 32.6363 55.476C33.0616 55.2053 33.7576 54.9347 34.7243 54.664L36.0003 54.316ZM38.8423 28.622C38.2236 28.622 37.489 28.7573 36.6383 29.028C35.8263 29.26 35.1303 29.55 34.5503 29.898C33.893 30.2847 33.255 30.884 32.6363 31.696C32.0563 32.4693 31.7663 33.0687 31.7663 33.494C31.7663 38.5593 33.8156 41.092 37.9143 41.092C38.8423 41.092 39.867 40.8987 40.9883 40.512C42.1483 40.0867 43.115 39.5067 43.8883 38.772C44.6616 38.0373 45.0483 37.206 45.0483 36.278C45.0483 33.726 44.507 31.812 43.4243 30.536C42.3803 29.26 40.853 28.622 38.8423 28.622Z" fill="white"/>
</svg>
