<svg width="78" height="83" viewBox="0 0 78 83" fill="none" xmlns="http://www.w3.org/2000/svg">
<rect y="3" width="78" height="80" rx="28" fill="white" fill-opacity="0.87"/>
<path d="M47.3196 34.422C48.0929 34.422 48.6923 34.6153 49.1176 35.002C49.5816 35.35 49.8136 35.7947 49.8136 36.336C49.8136 36.7227 49.7363 37.1287 49.5816 37.554C49.4656 37.9407 49.3303 38.3467 49.1756 38.772C48.2863 40.86 46.4109 43.7793 43.5496 47.53C46.4883 51.3193 48.8663 53.7553 50.6836 54.838C50.8383 54.9153 51.1283 55.0507 51.5536 55.244C51.9789 55.4373 52.3076 55.6693 52.5396 55.94C52.8103 56.2107 52.9456 56.52 52.9456 56.868C52.9456 57.7187 52.6169 58.4147 51.9596 58.956C51.3409 59.4587 50.5869 59.71 49.6976 59.71C48.1896 59.71 46.5463 58.8787 44.7676 57.216C42.9889 55.5147 41.4809 53.736 40.2436 51.88C39.3543 53.2333 38.3296 54.5867 37.1696 55.94C36.0483 57.2547 35.0043 58.376 34.0376 59.304C33.6509 59.7293 33.1869 60.058 32.6456 60.29C32.1429 60.522 31.6403 60.638 31.1376 60.638C30.4416 60.638 29.8229 60.4833 29.2816 60.174C28.7403 59.8647 28.4696 59.3233 28.4696 58.55C28.4696 58.3567 28.6049 58.0473 28.8756 57.622C29.1463 57.158 29.3009 56.8873 29.3396 56.81C29.8036 55.998 30.4223 55.1667 31.1956 54.316C31.9689 53.4267 32.4523 52.866 32.6456 52.634C33.1096 52.054 33.6123 51.4933 34.1536 50.952C34.4629 50.604 34.9269 50.0627 35.5456 49.328C36.1643 48.5933 36.5896 48.0133 36.8216 47.588L34.7916 44.804C33.8249 43.6827 32.9936 42.7933 32.2976 42.136C31.6016 41.44 31.0409 41.092 30.6156 41.092C29.9969 41.092 29.4169 41.266 28.8756 41.614C28.4116 41.9233 27.9476 42.078 27.4836 42.078C26.9809 42.078 26.5943 41.962 26.3236 41.73C26.0529 41.4593 25.9176 41.1693 25.9176 40.86C25.9176 39.5453 26.4396 38.424 27.4836 37.496C28.5276 36.5293 29.8423 36.046 31.4276 36.046C32.9356 36.046 34.2696 36.568 35.4296 37.612C36.6283 38.6173 37.8076 39.9707 38.9676 41.672C39.1223 41.8267 39.2963 42.078 39.4896 42.426C39.6829 42.774 39.8763 43.064 40.0696 43.296C40.4949 42.6773 41.2683 41.4787 42.3896 39.7C43.5883 37.5733 44.3036 36.3553 44.5356 36.046C45.3476 34.9633 46.2756 34.422 47.3196 34.422Z" fill="black"/>
</svg>
